<svg xmlns="http://www.w3.org/2000/svg" width="261.297" height="261.142" viewBox="0 0 261.297 261.142">
  <g id="Group_11649" data-name="Group 11649" transform="translate(-855.886 -3389.995)">
    <path id="Path_24313" data-name="Path 24313" d="M311.88,398.4a7.406,7.406,0,1,1-7.408-7.406,7.405,7.405,0,0,1,7.408,7.406" transform="translate(559.027 2999.004)" fill="#b73528"/>
    <path id="Path_24314" data-name="Path 24314" d="M329.625,398.4a7.406,7.406,0,1,1-7.406-7.406,7.405,7.405,0,0,1,7.406,7.406" transform="translate(571.937 2999.004)" fill="#b73528"/>
    <path id="Path_24315" data-name="Path 24315" d="M347.427,398.4a7.406,7.406,0,1,1-7.406-7.406,7.405,7.405,0,0,1,7.406,7.406" transform="translate(584.889 2999.004)" fill="#b73528"/>
    <path id="Path_24316" data-name="Path 24316" d="M365.2,398.4a7.406,7.406,0,1,1-7.406-7.406A7.405,7.405,0,0,1,365.2,398.4" transform="translate(597.819 2999.004)" fill="#b73528"/>
    <path id="Path_24317" data-name="Path 24317" d="M383.157,398.4a7.406,7.406,0,1,1-7.406-7.406,7.405,7.405,0,0,1,7.406,7.406" transform="translate(610.884 2999.004)" fill="#b73528"/>
    <path id="Path_24318" data-name="Path 24318" d="M329.625,416.253a7.406,7.406,0,1,1-7.406-7.406,7.407,7.407,0,0,1,7.406,7.406" transform="translate(571.937 3011.995)" fill="#b73528"/>
    <path id="Path_24319" data-name="Path 24319" d="M347.427,416.253a7.406,7.406,0,1,1-7.406-7.406,7.407,7.407,0,0,1,7.406,7.406" transform="translate(584.889 3011.995)" fill="#b73528"/>
    <path id="Path_24320" data-name="Path 24320" d="M365.2,416.253a7.406,7.406,0,1,1-7.406-7.406,7.407,7.407,0,0,1,7.406,7.406" transform="translate(597.819 3011.995)" fill="#b73528"/>
    <path id="Path_24321" data-name="Path 24321" d="M383.157,416.253a7.406,7.406,0,1,1-7.406-7.406,7.407,7.407,0,0,1,7.406,7.406" transform="translate(610.884 3011.995)" fill="#b73528"/>
    <path id="Path_24322" data-name="Path 24322" d="M347.427,434.077a7.406,7.406,0,1,1-7.406-7.406,7.405,7.405,0,0,1,7.406,7.406" transform="translate(584.889 3024.962)" fill="#b73528"/>
    <path id="Path_24323" data-name="Path 24323" d="M365.2,434.077a7.406,7.406,0,1,1-7.406-7.406,7.405,7.405,0,0,1,7.406,7.406" transform="translate(597.819 3024.962)" fill="#b73528"/>
    <path id="Path_24324" data-name="Path 24324" d="M383.157,434.077a7.406,7.406,0,1,1-7.406-7.406,7.405,7.405,0,0,1,7.406,7.406" transform="translate(610.884 3024.962)" fill="#b73528"/>
    <path id="Path_24325" data-name="Path 24325" d="M365.2,451.84a7.406,7.406,0,1,1-7.406-7.406,7.405,7.405,0,0,1,7.406,7.406" transform="translate(597.819 3037.885)" fill="#b73528"/>
    <path id="Path_24326" data-name="Path 24326" d="M383.157,451.84a7.406,7.406,0,1,1-7.406-7.406,7.405,7.405,0,0,1,7.406,7.406" transform="translate(610.884 3037.885)" fill="#b73528"/>
    <path id="Path_24327" data-name="Path 24327" d="M383.157,469.7a7.406,7.406,0,1,1-7.406-7.406,7.405,7.405,0,0,1,7.406,7.406" transform="translate(610.884 3050.882)" fill="#b73528"/>
    <path id="Path_24328" data-name="Path 24328" d="M401,416.253a7.406,7.406,0,1,1-7.406-7.406A7.407,7.407,0,0,1,401,416.253" transform="translate(623.863 3011.995)" fill="#b73528"/>
    <path id="Path_24329" data-name="Path 24329" d="M401,434.077a7.406,7.406,0,1,1-7.406-7.406A7.405,7.405,0,0,1,401,434.077" transform="translate(623.863 3024.962)" fill="#b73528"/>
    <path id="Path_24330" data-name="Path 24330" d="M401,451.84a7.406,7.406,0,1,1-7.406-7.406A7.405,7.405,0,0,1,401,451.84" transform="translate(623.863 3037.885)" fill="#b73528"/>
    <path id="Path_24331" data-name="Path 24331" d="M401,469.7a7.406,7.406,0,1,1-7.406-7.406A7.405,7.405,0,0,1,401,469.7" transform="translate(623.863 3050.882)" fill="#b73528"/>
    <path id="Path_24332" data-name="Path 24332" d="M418.811,434.077a7.406,7.406,0,1,1-7.406-7.406,7.405,7.405,0,0,1,7.406,7.406" transform="translate(636.823 3024.962)" fill="#b73528"/>
    <path id="Path_24333" data-name="Path 24333" d="M418.811,451.84a7.406,7.406,0,1,1-7.406-7.406,7.405,7.405,0,0,1,7.406,7.406" transform="translate(636.823 3037.885)" fill="#b73528"/>
    <path id="Path_24334" data-name="Path 24334" d="M418.811,469.7A7.406,7.406,0,1,1,411.4,462.3a7.405,7.405,0,0,1,7.406,7.406" transform="translate(636.823 3050.882)" fill="#b73528"/>
    <path id="Path_24335" data-name="Path 24335" d="M436.625,451.84a7.406,7.406,0,1,1-7.406-7.406,7.405,7.405,0,0,1,7.406,7.406" transform="translate(649.783 3037.885)" fill="#b73528"/>
    <path id="Path_24336" data-name="Path 24336" d="M436.625,469.7a7.406,7.406,0,1,1-7.406-7.406,7.405,7.405,0,0,1,7.406,7.406" transform="translate(649.783 3050.882)" fill="#b73528"/>
    <path id="Path_24337" data-name="Path 24337" d="M383.157,487.545a7.406,7.406,0,1,1-7.406-7.406,7.405,7.405,0,0,1,7.406,7.406" transform="translate(610.884 3063.862)" fill="#b73528"/>
    <path id="Path_24338" data-name="Path 24338" d="M365.317,487.545a7.406,7.406,0,1,1-7.406-7.406,7.405,7.405,0,0,1,7.406,7.406" transform="translate(597.904 3063.862)" fill="#b73528"/>
    <path id="Path_24339" data-name="Path 24339" d="M401,487.545a7.406,7.406,0,1,1-7.406-7.406A7.405,7.405,0,0,1,401,487.545" transform="translate(623.863 3063.862)" fill="#b73528"/>
    <path id="Path_24340" data-name="Path 24340" d="M418.811,487.545a7.406,7.406,0,1,1-7.406-7.406,7.405,7.405,0,0,1,7.406,7.406" transform="translate(636.823 3063.862)" fill="#b73528"/>
    <path id="Path_24341" data-name="Path 24341" d="M383.157,505.385a7.406,7.406,0,1,1-7.406-7.406,7.405,7.405,0,0,1,7.406,7.406" transform="translate(610.884 3076.841)" fill="#b73528"/>
    <path id="Path_24342" data-name="Path 24342" d="M401,505.385a7.406,7.406,0,1,1-7.406-7.406A7.405,7.405,0,0,1,401,505.385" transform="translate(623.863 3076.841)" fill="#b73528"/>
    <path id="Path_24343" data-name="Path 24343" d="M347.477,505.385a7.406,7.406,0,1,1-7.406-7.406,7.405,7.405,0,0,1,7.406,7.406" transform="translate(584.925 3076.841)" fill="#b73528"/>
    <path id="Path_24344" data-name="Path 24344" d="M365.317,505.385a7.406,7.406,0,1,1-7.406-7.406,7.405,7.405,0,0,1,7.406,7.406" transform="translate(597.904 3076.841)" fill="#b73528"/>
    <path id="Path_24345" data-name="Path 24345" d="M383.157,523.148a7.406,7.406,0,1,1-7.406-7.406,7.405,7.405,0,0,1,7.406,7.406" transform="translate(610.884 3089.764)" fill="#b73528"/>
    <path id="Path_24346" data-name="Path 24346" d="M401,523.148a7.406,7.406,0,1,1-7.406-7.406A7.405,7.405,0,0,1,401,523.148" transform="translate(623.863 3089.764)" fill="#b73528"/>
    <path id="Path_24347" data-name="Path 24347" d="M347.477,523.148a7.406,7.406,0,1,1-7.406-7.406,7.405,7.405,0,0,1,7.406,7.406" transform="translate(584.925 3089.764)" fill="#b73528"/>
    <path id="Path_24348" data-name="Path 24348" d="M329.676,523.148a7.406,7.406,0,1,1-7.406-7.406,7.405,7.405,0,0,1,7.406,7.406" transform="translate(571.975 3089.764)" fill="#b73528"/>
    <path id="Path_24349" data-name="Path 24349" d="M365.317,523.148a7.406,7.406,0,1,1-7.406-7.406,7.405,7.405,0,0,1,7.406,7.406" transform="translate(597.904 3089.764)" fill="#b73528"/>
    <path id="Path_24350" data-name="Path 24350" d="M383.157,540.988a7.406,7.406,0,1,1-7.406-7.406,7.405,7.405,0,0,1,7.406,7.406" transform="translate(610.884 3102.743)" fill="#b73528"/>
    <path id="Path_24351" data-name="Path 24351" d="M347.477,540.988a7.406,7.406,0,1,1-7.406-7.406,7.405,7.405,0,0,1,7.406,7.406" transform="translate(584.925 3102.743)" fill="#b73528"/>
    <path id="Path_24352" data-name="Path 24352" d="M365.317,540.988a7.406,7.406,0,1,1-7.406-7.406,7.405,7.405,0,0,1,7.406,7.406" transform="translate(597.904 3102.743)" fill="#b73528"/>
    <path id="Path_24353" data-name="Path 24353" d="M311.759,540.988a7.406,7.406,0,1,1-7.406-7.406,7.405,7.405,0,0,1,7.406,7.406" transform="translate(558.939 3102.743)" fill="#b73528"/>
    <path id="Path_24354" data-name="Path 24354" d="M329.6,540.988a7.406,7.406,0,1,1-7.406-7.406,7.405,7.405,0,0,1,7.406,7.406" transform="translate(571.919 3102.743)" fill="#b73528"/>
    <path id="Path_24355" data-name="Path 24355" d="M418.811,505.385a7.406,7.406,0,1,1-7.406-7.406,7.405,7.405,0,0,1,7.406,7.406" transform="translate(636.823 3076.841)" fill="#b73528"/>
    <path id="Path_24356" data-name="Path 24356" d="M436.625,487.545a7.406,7.406,0,1,1-7.406-7.406,7.405,7.405,0,0,1,7.406,7.406" transform="translate(649.783 3063.862)" fill="#b73528"/>
    <path id="Path_24357" data-name="Path 24357" d="M454.44,469.7a7.406,7.406,0,1,1-7.406-7.406,7.405,7.405,0,0,1,7.406,7.406" transform="translate(662.744 3050.882)" fill="#b73528"/>
  </g>
</svg>
