<svg xmlns="http://www.w3.org/2000/svg" xmlns:xlink="http://www.w3.org/1999/xlink" width="1431" height="42" viewBox="0 0 1431 42">
  <defs>
    <clipPath id="clip-path">
      <rect id="Rectangle_103" data-name="Rectangle 103" width="1431" height="42" transform="translate(287 3336)" fill="#fff"/>
    </clipPath>
    <clipPath id="clip-path-2">
      <rect id="Rectangle_100" data-name="Rectangle 100" width="31.527" height="37.877" fill="none"/>
    </clipPath>
    <clipPath id="clip-path-3">
      <rect id="Rectangle_101" data-name="Rectangle 101" width="27.666" height="39.342" fill="none"/>
    </clipPath>
    <clipPath id="clip-path-4">
      <rect id="Rectangle_102" data-name="Rectangle 102" width="68.74" height="33.582" fill="none"/>
    </clipPath>
  </defs>
  <g id="Mask_Group_11311" data-name="Mask Group 11311" transform="translate(-287 -3336)" clip-path="url(#clip-path)">
    <path id="Path_252" data-name="Path 252" d="M.391-10.391v-1.25H9.125v1.25H5.469V0H4.063V-10.391ZM11.027,0V-11.641h1.406v5.188h6.2v-5.187h1.406V0H18.636V-5.2h-6.2V0ZM22.585,0V-11.641h7.031v1.25H23.991V-6.5h5.25v1.25h-5.25v4h5.7V0ZM36.107,0V-11.641h6.984v1.25H37.514v4.063h5.047v1.25H37.514V0Zm9.121,0V-11.641h3.938a4.736,4.736,0,0,1,2.238.465A3.009,3.009,0,0,1,52.7-9.9a3.918,3.918,0,0,1,.422,1.84,3.861,3.861,0,0,1-.418,1.82A2.914,2.914,0,0,1,51.412-5a4.855,4.855,0,0,1-2.23.449H46.009V-5.812h3.125a3.516,3.516,0,0,0,1.508-.273,1.735,1.735,0,0,0,.828-.777,2.6,2.6,0,0,0,.258-1.2,2.711,2.711,0,0,0-.262-1.227,1.811,1.811,0,0,0-.832-.812,3.371,3.371,0,0,0-1.516-.289H46.634V0Zm6.7,0L49.119-5.234h1.594L53.572,0Zm3.261,0V-11.641h7.031v1.25H56.6V-6.5h5.25v1.25H56.6v4h5.7V0Zm12.98.2a5.341,5.341,0,0,1-2.164-.4,3.409,3.409,0,0,1-1.434-1.125A3.216,3.216,0,0,1,63.985-3h1.453a1.834,1.834,0,0,0,.449,1.086,2.345,2.345,0,0,0,.988.641,3.892,3.892,0,0,0,1.3.211,3.772,3.772,0,0,0,1.449-.266,2.454,2.454,0,0,0,1.02-.742,1.754,1.754,0,0,0,.375-1.117,1.336,1.336,0,0,0-.328-.937,2.443,2.443,0,0,0-.855-.586,9.049,9.049,0,0,0-1.145-.4l-1.422-.406a5.275,5.275,0,0,1-2.16-1.121,2.476,2.476,0,0,1-.793-1.91,2.839,2.839,0,0,1,.527-1.707,3.483,3.483,0,0,1,1.43-1.137,4.846,4.846,0,0,1,2.012-.406,4.737,4.737,0,0,1,2,.4A3.536,3.536,0,0,1,71.673-10.3a2.723,2.723,0,0,1,.547,1.566H70.844a1.78,1.78,0,0,0-.824-1.336,3.174,3.174,0,0,0-1.785-.477,3.362,3.362,0,0,0-1.344.25,2.129,2.129,0,0,0-.9.688,1.649,1.649,0,0,0-.32,1,1.339,1.339,0,0,0,.383,1,2.706,2.706,0,0,0,.91.59q.527.211.957.336l1.172.328q.453.125,1.012.336a4.994,4.994,0,0,1,1.078.57,2.948,2.948,0,0,1,.855.918,2.632,2.632,0,0,1,.336,1.379,3.065,3.065,0,0,1-.492,1.7,3.4,3.4,0,0,1-1.43,1.211A5.248,5.248,0,0,1,68.173.2ZM74.418,0V-11.641h1.406v5.188h6.2v-5.187h1.406V0H82.027V-5.2h-6.2V0ZM90.206,0V-11.641h6.984v1.25H91.612v4.063h5.047v1.25H91.612V0Zm9.121,0V-11.641h3.938a4.736,4.736,0,0,1,2.238.465A3.009,3.009,0,0,1,106.8-9.9a3.918,3.918,0,0,1,.422,1.84,3.86,3.86,0,0,1-.418,1.82A2.914,2.914,0,0,1,105.51-5a4.855,4.855,0,0,1-2.23.449h-3.172V-5.812h3.125a3.516,3.516,0,0,0,1.508-.273,1.735,1.735,0,0,0,.828-.777,2.6,2.6,0,0,0,.258-1.2,2.711,2.711,0,0,0-.262-1.227,1.811,1.811,0,0,0-.832-.812,3.371,3.371,0,0,0-1.516-.289h-2.484V0Zm6.7,0-2.812-5.234h1.594L107.671,0Zm3.261,0V-11.641h7.031v1.25H110.7V-6.5h5.25v1.25H110.7v4h5.7V0Zm9.292,0V-11.641h7.031v1.25H119.99V-6.5h5.25v1.25h-5.25v4h5.7V0Zm8.9,0V-1.016l6.281-9.375h-6.344v-1.25h8.031v1.031L129.173-1.25h6.344V0Zm10.121,0V-11.641h7.031v1.25h-5.625V-6.5h5.25v1.25h-5.25v4h5.7V0Zm17.116,0h-2.8V-1.25h2.7a4.688,4.688,0,0,0,2.395-.555,3.433,3.433,0,0,0,1.418-1.586,5.89,5.89,0,0,0,.469-2.453,5.852,5.852,0,0,0-.461-2.426,3.427,3.427,0,0,0-1.379-1.57,4.374,4.374,0,0,0-2.285-.551h-2.922v-1.25h3.016a5.722,5.722,0,0,1,2.9.7,4.576,4.576,0,0,1,1.848,2,6.963,6.963,0,0,1,.641,3.105,6.98,6.98,0,0,1-.648,3.129A4.609,4.609,0,0,1,157.734-.7,6.012,6.012,0,0,1,154.722,0Zm-2.187-11.641V0h-1.406V-11.641ZM162.359,0V-11.641H166.3a4.736,4.736,0,0,1,2.238.465A3.009,3.009,0,0,1,169.827-9.9a3.918,3.918,0,0,1,.422,1.84,3.861,3.861,0,0,1-.418,1.82A2.914,2.914,0,0,1,168.542-5a4.855,4.855,0,0,1-2.23.449H163.14V-5.812h3.125a3.516,3.516,0,0,0,1.508-.273,1.735,1.735,0,0,0,.828-.777,2.6,2.6,0,0,0,.258-1.2,2.711,2.711,0,0,0-.262-1.227,1.811,1.811,0,0,0-.832-.812,3.371,3.371,0,0,0-1.516-.289h-2.484V0Zm6.7,0-2.812-5.234h1.594L170.7,0Zm4.667-11.641V0h-1.406V-11.641ZM176.272,0V-11.641H183.3v1.25h-5.625V-6.5h5.25v1.25h-5.25v4h5.7V0Zm12.886,0h-2.8V-1.25h2.7a4.688,4.688,0,0,0,2.395-.555,3.433,3.433,0,0,0,1.418-1.586,5.89,5.89,0,0,0,.469-2.453,5.852,5.852,0,0,0-.461-2.426,3.427,3.427,0,0,0-1.379-1.57,4.374,4.374,0,0,0-2.285-.551H186.3v-1.25h3.016a5.722,5.722,0,0,1,2.9.7,4.576,4.576,0,0,1,1.848,2,6.963,6.963,0,0,1,.641,3.105,6.98,6.98,0,0,1-.648,3.129A4.609,4.609,0,0,1,192.17-.7,6.012,6.012,0,0,1,189.158,0Zm-2.187-11.641V0h-1.406V-11.641ZM201.509,0h-1.484l4.281-11.641h1.453L210.024,0h-1.469l-3.484-9.8h-.094Zm.547-4.547h5.953V-3.3h-5.953ZM215.161,0h-2.8V-1.25h2.7a4.688,4.688,0,0,0,2.395-.555,3.433,3.433,0,0,0,1.418-1.586,5.89,5.89,0,0,0,.469-2.453,5.852,5.852,0,0,0-.461-2.426,3.427,3.427,0,0,0-1.379-1.57,4.374,4.374,0,0,0-2.285-.551H212.3v-1.25h3.016a5.722,5.722,0,0,1,2.9.7,4.576,4.576,0,0,1,1.848,2,6.963,6.963,0,0,1,.641,3.105,6.98,6.98,0,0,1-.648,3.129A4.609,4.609,0,0,1,218.172-.7,6.012,6.012,0,0,1,215.161,0Zm-2.187-11.641V0h-1.406V-11.641Zm9.769,0,3.453,9.8h.141l3.453-9.8h1.469L226.992,0h-1.453l-4.281-11.641ZM232.191,0h-1.484l4.281-11.641h1.453L240.706,0h-1.469l-3.484-9.8h-.094Zm.547-4.547h5.953V-3.3h-5.953ZM251.5-11.641V0h-1.391L243.78-9.141h-.125V0h-1.406V-11.641h1.359l6.375,9.156h.109v-9.156Zm1.9,1.25v-1.25h8.734v1.25h-3.656V0h-1.406V-10.391ZM263.162,0h-1.484l4.281-11.641h1.453L271.678,0h-1.469l-3.484-9.8h-.094Zm.547-4.547h5.953V-3.3h-5.953Zm13.707,4.7A5.033,5.033,0,0,1,274.7-.57a4.883,4.883,0,0,1-1.82-2.066,7.185,7.185,0,0,1-.652-3.176A7.23,7.23,0,0,1,272.88-9a4.925,4.925,0,0,1,1.8-2.07,4.833,4.833,0,0,1,2.641-.727,5.261,5.261,0,0,1,1.719.273,4.6,4.6,0,0,1,1.422.781,4.575,4.575,0,0,1,1.043,1.2A4.7,4.7,0,0,1,282.087-8h-1.453a4.266,4.266,0,0,0-.488-1.035,3.185,3.185,0,0,0-.723-.781,3.152,3.152,0,0,0-.945-.5,3.69,3.69,0,0,0-1.156-.172,3.448,3.448,0,0,0-1.879.535,3.719,3.719,0,0,0-1.352,1.578,5.85,5.85,0,0,0-.5,2.559,5.766,5.766,0,0,0,.508,2.547,3.7,3.7,0,0,0,1.375,1.574,3.629,3.629,0,0,0,1.945.535,3.5,3.5,0,0,0,1.758-.43A3.047,3.047,0,0,0,280.361-2.8a3.808,3.808,0,0,0,.43-1.855l.438.094h-3.5v-1.25h4.438v1.25a4.917,4.917,0,0,1-.609,2.5,4.234,4.234,0,0,1-1.684,1.641A5.075,5.075,0,0,1,277.416.156ZM284.3,0V-11.641h7.031v1.25h-5.625V-6.5h5.25v1.25h-5.25v4h5.7V0Z" transform="translate(379.25 3362)" fill="#040404"/>
    <path id="Path_254" data-name="Path 254" d="M1.031,0V-11.641H4.969a4.516,4.516,0,0,1,2.238.492A3.128,3.128,0,0,1,8.5-9.82a4.085,4.085,0,0,1,.422,1.867A4.148,4.148,0,0,1,8.5-6.086a3.115,3.115,0,0,1-1.289,1.34,4.469,4.469,0,0,1-2.23.5H2.172V-5.5H4.938a3.071,3.071,0,0,0,1.508-.32A1.914,1.914,0,0,0,7.273-6.7a2.958,2.958,0,0,0,.258-1.254,2.924,2.924,0,0,0-.258-1.254,1.9,1.9,0,0,0-.832-.867,3.145,3.145,0,0,0-1.52-.316H2.438V0Zm9.886,0V-11.641h3.938a4.736,4.736,0,0,1,2.238.465A3.009,3.009,0,0,1,18.386-9.9a3.918,3.918,0,0,1,.422,1.84,3.86,3.86,0,0,1-.418,1.82A2.914,2.914,0,0,1,17.1-5a4.855,4.855,0,0,1-2.23.449H11.7V-5.812h3.125a3.516,3.516,0,0,0,1.508-.273,1.735,1.735,0,0,0,.828-.777,2.6,2.6,0,0,0,.258-1.2,2.711,2.711,0,0,0-.262-1.227,1.811,1.811,0,0,0-.832-.812,3.371,3.371,0,0,0-1.516-.289H12.324V0Zm6.7,0L14.808-5.234H16.4L19.261,0Zm7.957.156A4.9,4.9,0,0,1,22.929-.57,5,5,0,0,1,21.1-2.637a7.042,7.042,0,0,1-.668-3.176A7.086,7.086,0,0,1,21.1-9a4.991,4.991,0,0,1,1.832-2.07,4.9,4.9,0,0,1,2.648-.727,4.872,4.872,0,0,1,2.648.727A4.984,4.984,0,0,1,30.046-9a7.122,7.122,0,0,1,.664,3.188,7.077,7.077,0,0,1-.664,3.176A4.988,4.988,0,0,1,28.226-.57,4.872,4.872,0,0,1,25.577.156Zm0-1.312a3.528,3.528,0,0,0,1.91-.535,3.7,3.7,0,0,0,1.359-1.574,5.8,5.8,0,0,0,.5-2.547,5.85,5.85,0,0,0-.5-2.559,3.7,3.7,0,0,0-1.359-1.578,3.528,3.528,0,0,0-1.91-.535,3.548,3.548,0,0,0-1.914.535A3.714,3.714,0,0,0,22.3-8.371a5.812,5.812,0,0,0-.508,2.559A5.766,5.766,0,0,0,22.3-3.266a3.718,3.718,0,0,0,1.367,1.574A3.548,3.548,0,0,0,25.577-1.156ZM36.393,0H33.6V-1.25h2.7A4.688,4.688,0,0,0,38.694-1.8a3.433,3.433,0,0,0,1.418-1.586,5.89,5.89,0,0,0,.469-2.453A5.852,5.852,0,0,0,40.12-8.27a3.427,3.427,0,0,0-1.379-1.57,4.374,4.374,0,0,0-2.285-.551H33.534v-1.25h3.016a5.722,5.722,0,0,1,2.9.7,4.576,4.576,0,0,1,1.848,2,6.963,6.963,0,0,1,.641,3.105,6.98,6.98,0,0,1-.648,3.129A4.609,4.609,0,0,1,39.4-.7,6.012,6.012,0,0,1,36.393,0ZM34.206-11.641V0H32.8V-11.641Zm17.464,0h1.406v7.7a4.066,4.066,0,0,1-.559,2.129A3.944,3.944,0,0,1,50.943-.336,5.011,5.011,0,0,1,48.561.2a5.035,5.035,0,0,1-2.387-.539,3.966,3.966,0,0,1-1.582-1.473,4.044,4.044,0,0,1-.562-2.129v-7.7h1.406v7.594a3.028,3.028,0,0,0,.375,1.516,2.652,2.652,0,0,0,1.078,1.043,3.476,3.476,0,0,0,1.672.379,3.43,3.43,0,0,0,1.664-.379,2.664,2.664,0,0,0,1.07-1.043,3.028,3.028,0,0,0,.375-1.516ZM60.306.156A4.9,4.9,0,0,1,57.658-.57,4.969,4.969,0,0,1,55.83-2.637a7.077,7.077,0,0,1-.664-3.176A7.122,7.122,0,0,1,55.83-9a4.964,4.964,0,0,1,1.828-2.07,4.9,4.9,0,0,1,2.648-.727,5.215,5.215,0,0,1,1.652.258,4.621,4.621,0,0,1,1.4.746A4.234,4.234,0,0,1,64.4-9.6,4.709,4.709,0,0,1,64.978-8H63.572a2.977,2.977,0,0,0-.434-1.07,3,3,0,0,0-.75-.777,3.284,3.284,0,0,0-.973-.477,3.823,3.823,0,0,0-1.109-.16,3.548,3.548,0,0,0-1.914.535,3.689,3.689,0,0,0-1.363,1.578,5.85,5.85,0,0,0-.5,2.559,5.8,5.8,0,0,0,.5,2.547,3.693,3.693,0,0,0,1.363,1.574,3.548,3.548,0,0,0,1.914.535,3.823,3.823,0,0,0,1.109-.16,3.284,3.284,0,0,0,.973-.477,3,3,0,0,0,.75-.777,2.977,2.977,0,0,0,.434-1.07h1.406a4.67,4.67,0,0,1-.574,1.6A4.254,4.254,0,0,1,63.361-.848a4.621,4.621,0,0,1-1.4.746A5.215,5.215,0,0,1,60.306.156Zm6.042-10.547v-1.25h8.734v1.25H71.427V0H70.021V-10.391ZM80.673.2a5.341,5.341,0,0,1-2.164-.4,3.409,3.409,0,0,1-1.434-1.125A3.216,3.216,0,0,1,76.485-3h1.453a1.834,1.834,0,0,0,.449,1.086,2.345,2.345,0,0,0,.988.641,3.892,3.892,0,0,0,1.3.211,3.772,3.772,0,0,0,1.449-.266,2.454,2.454,0,0,0,1.02-.742,1.754,1.754,0,0,0,.375-1.117,1.336,1.336,0,0,0-.328-.937,2.443,2.443,0,0,0-.855-.586,9.049,9.049,0,0,0-1.145-.4l-1.422-.406a5.275,5.275,0,0,1-2.16-1.121,2.476,2.476,0,0,1-.793-1.91,2.839,2.839,0,0,1,.527-1.707,3.483,3.483,0,0,1,1.43-1.137,4.846,4.846,0,0,1,2.012-.406,4.737,4.737,0,0,1,2,.4A3.536,3.536,0,0,1,84.173-10.3a2.723,2.723,0,0,1,.547,1.566H83.344a1.78,1.78,0,0,0-.824-1.336,3.174,3.174,0,0,0-1.785-.477,3.362,3.362,0,0,0-1.344.25,2.129,2.129,0,0,0-.9.688,1.649,1.649,0,0,0-.32,1,1.339,1.339,0,0,0,.383,1,2.706,2.706,0,0,0,.91.59q.527.211.957.336l1.172.328q.453.125,1.012.336a4.994,4.994,0,0,1,1.078.57,2.948,2.948,0,0,1,.855.918,2.632,2.632,0,0,1,.336,1.379,3.065,3.065,0,0,1-.492,1.7,3.4,3.4,0,0,1-1.43,1.211A5.248,5.248,0,0,1,80.673.2ZM91.148,0V-11.641h6.984v1.25H92.554v4.063H97.6v1.25H92.554V0Zm13.816.156a4.9,4.9,0,0,1-2.648-.727,5,5,0,0,1-1.832-2.066,7.042,7.042,0,0,1-.668-3.176A7.086,7.086,0,0,1,100.484-9a4.991,4.991,0,0,1,1.832-2.07,4.9,4.9,0,0,1,2.648-.727,4.872,4.872,0,0,1,2.648.727A4.984,4.984,0,0,1,109.433-9a7.122,7.122,0,0,1,.664,3.188,7.077,7.077,0,0,1-.664,3.176,4.988,4.988,0,0,1-1.82,2.066A4.872,4.872,0,0,1,104.964.156Zm0-1.312a3.528,3.528,0,0,0,1.91-.535,3.7,3.7,0,0,0,1.359-1.574,5.8,5.8,0,0,0,.5-2.547,5.85,5.85,0,0,0-.5-2.559,3.7,3.7,0,0,0-1.359-1.578,3.528,3.528,0,0,0-1.91-.535,3.548,3.548,0,0,0-1.914.535,3.714,3.714,0,0,0-1.367,1.578,5.812,5.812,0,0,0-.508,2.559,5.766,5.766,0,0,0,.508,2.547,3.718,3.718,0,0,0,1.367,1.574A3.548,3.548,0,0,0,104.964-1.156ZM112.186,0V-11.641h3.938a4.736,4.736,0,0,1,2.238.465A3.009,3.009,0,0,1,119.655-9.9a3.918,3.918,0,0,1,.422,1.84,3.86,3.86,0,0,1-.418,1.82A2.914,2.914,0,0,1,118.37-5a4.855,4.855,0,0,1-2.23.449h-3.172V-5.812h3.125a3.516,3.516,0,0,0,1.508-.273,1.735,1.735,0,0,0,.828-.777,2.6,2.6,0,0,0,.258-1.2,2.711,2.711,0,0,0-.262-1.227,1.811,1.811,0,0,0-.832-.812,3.371,3.371,0,0,0-1.516-.289h-2.484V0Zm6.7,0-2.812-5.234h1.594L120.53,0Zm7.976-11.641,3.453,9.8h.141l3.453-9.8h1.469L131.115,0h-1.453l-4.281-11.641ZM136.923,0V-11.641h7.031v1.25h-5.625V-6.5h5.25v1.25h-5.25v4h5.7V0ZM150.95.156a5.033,5.033,0,0,1-2.715-.727,4.883,4.883,0,0,1-1.82-2.066,7.185,7.185,0,0,1-.652-3.176A7.23,7.23,0,0,1,146.415-9a4.925,4.925,0,0,1,1.8-2.07,4.833,4.833,0,0,1,2.641-.727,5.261,5.261,0,0,1,1.719.273,4.6,4.6,0,0,1,1.422.781,4.574,4.574,0,0,1,1.043,1.2A4.7,4.7,0,0,1,155.622-8h-1.453a4.266,4.266,0,0,0-.488-1.035,3.184,3.184,0,0,0-.723-.781,3.152,3.152,0,0,0-.945-.5,3.69,3.69,0,0,0-1.156-.172,3.448,3.448,0,0,0-1.879.535,3.718,3.718,0,0,0-1.352,1.578,5.85,5.85,0,0,0-.5,2.559,5.766,5.766,0,0,0,.508,2.547A3.7,3.7,0,0,0,149-1.691a3.629,3.629,0,0,0,1.945.535,3.5,3.5,0,0,0,1.758-.43A3.047,3.047,0,0,0,153.9-2.8a3.808,3.808,0,0,0,.43-1.855l.438.094h-3.5v-1.25H155.7v1.25a4.917,4.917,0,0,1-.609,2.5,4.234,4.234,0,0,1-1.684,1.641A5.075,5.075,0,0,1,150.95.156ZM157.836,0V-11.641h7.031v1.25h-5.625V-6.5h5.25v1.25h-5.25v4h5.7V0Zm8.652-10.391v-1.25h8.734v1.25h-3.656V0H170.16V-10.391ZM176.249,0h-1.484l4.281-11.641H180.5L184.765,0H183.3l-3.484-9.8h-.094Zm.547-4.547h5.953V-3.3H176.8ZM186.307,0V-11.641h3.938a4.736,4.736,0,0,1,2.238.465A3.009,3.009,0,0,1,193.776-9.9a3.918,3.918,0,0,1,.422,1.84,3.861,3.861,0,0,1-.418,1.82A2.914,2.914,0,0,1,192.491-5a4.855,4.855,0,0,1-2.23.449h-3.172V-5.812h3.125a3.516,3.516,0,0,0,1.508-.273,1.735,1.735,0,0,0,.828-.777,2.6,2.6,0,0,0,.258-1.2,2.711,2.711,0,0,0-.262-1.227,1.811,1.811,0,0,0-.832-.812,3.371,3.371,0,0,0-1.516-.289h-2.484V0Zm6.7,0L190.2-5.234h1.594L194.651,0Zm4.667-11.641V0h-1.406V-11.641ZM200.7,0h-1.484L203.5-11.641h1.453L209.221,0h-1.469l-3.484-9.8h-.094Zm.547-4.547H207.2V-3.3h-5.953Zm18.761-7.094V0h-1.391l-6.328-9.141h-.125V0h-1.406V-11.641h1.359L218.5-2.484h.109v-9.156ZM226.243.2a5.341,5.341,0,0,1-2.164-.4,3.41,3.41,0,0,1-1.434-1.125A3.216,3.216,0,0,1,222.056-3h1.453a1.834,1.834,0,0,0,.449,1.086,2.345,2.345,0,0,0,.988.641,3.892,3.892,0,0,0,1.3.211,3.772,3.772,0,0,0,1.449-.266,2.454,2.454,0,0,0,1.02-.742,1.754,1.754,0,0,0,.375-1.117,1.336,1.336,0,0,0-.328-.937,2.443,2.443,0,0,0-.855-.586,9.049,9.049,0,0,0-1.145-.4l-1.422-.406a5.275,5.275,0,0,1-2.16-1.121,2.476,2.476,0,0,1-.793-1.91,2.839,2.839,0,0,1,.527-1.707,3.483,3.483,0,0,1,1.43-1.137,4.846,4.846,0,0,1,2.012-.406,4.737,4.737,0,0,1,2,.4,3.536,3.536,0,0,1,1.391,1.094,2.723,2.723,0,0,1,.547,1.566h-1.375a1.78,1.78,0,0,0-.824-1.336,3.174,3.174,0,0,0-1.785-.477,3.362,3.362,0,0,0-1.344.25,2.129,2.129,0,0,0-.9.688,1.649,1.649,0,0,0-.32,1,1.339,1.339,0,0,0,.383,1,2.706,2.706,0,0,0,.91.59q.527.211.957.336l1.172.328q.453.125,1.012.336a4.994,4.994,0,0,1,1.078.57,2.948,2.948,0,0,1,.855.918,2.633,2.633,0,0,1,.336,1.379,3.065,3.065,0,0,1-.492,1.7,3.4,3.4,0,0,1-1.43,1.211A5.248,5.248,0,0,1,226.243.2ZM237.2,0h-1.484L240-11.641h1.453L245.719,0H244.25l-3.484-9.8h-.094Zm.547-4.547H243.7V-3.3H237.75Zm18.761-7.094V0h-1.391l-6.328-9.141h-.125V0h-1.406V-11.641h1.359L255-2.484h.109v-9.156ZM262.647,0h-2.8V-1.25h2.7a4.689,4.689,0,0,0,2.395-.555,3.433,3.433,0,0,0,1.418-1.586,5.89,5.89,0,0,0,.469-2.453,5.852,5.852,0,0,0-.461-2.426A3.427,3.427,0,0,0,265-9.84a4.374,4.374,0,0,0-2.285-.551h-2.922v-1.25H262.8a5.722,5.722,0,0,1,2.9.7,4.576,4.576,0,0,1,1.848,2,6.963,6.963,0,0,1,.641,3.105,6.98,6.98,0,0,1-.648,3.129A4.609,4.609,0,0,1,265.659-.7,6.012,6.012,0,0,1,262.647,0ZM260.46-11.641V0h-1.406V-11.641Zm14.538,0,3.453,9.8h.141l3.453-9.8h1.469L279.248,0h-1.453l-4.281-11.641ZM285.056,0V-11.641h7.031v1.25h-5.625V-6.5h5.25v1.25h-5.25v4h5.7V0Zm14.027.156a5.033,5.033,0,0,1-2.715-.727,4.883,4.883,0,0,1-1.82-2.066,7.185,7.185,0,0,1-.652-3.176A7.23,7.23,0,0,1,294.548-9a4.925,4.925,0,0,1,1.8-2.07,4.833,4.833,0,0,1,2.641-.727,5.261,5.261,0,0,1,1.719.273,4.6,4.6,0,0,1,1.422.781,4.575,4.575,0,0,1,1.043,1.2A4.7,4.7,0,0,1,303.755-8H302.3a4.266,4.266,0,0,0-.488-1.035,3.185,3.185,0,0,0-.723-.781,3.152,3.152,0,0,0-.945-.5,3.69,3.69,0,0,0-1.156-.172,3.448,3.448,0,0,0-1.879.535,3.719,3.719,0,0,0-1.352,1.578,5.85,5.85,0,0,0-.5,2.559,5.766,5.766,0,0,0,.508,2.547,3.7,3.7,0,0,0,1.375,1.574,3.629,3.629,0,0,0,1.945.535,3.5,3.5,0,0,0,1.758-.43A3.047,3.047,0,0,0,302.028-2.8a3.808,3.808,0,0,0,.43-1.855l.438.094h-3.5v-1.25h4.438v1.25a4.917,4.917,0,0,1-.609,2.5A4.234,4.234,0,0,1,301.54-.426,5.075,5.075,0,0,1,299.083.156ZM306.094,0H304.61l4.281-11.641h1.453L314.61,0h-1.469l-3.484-9.8h-.094Zm.547-4.547h5.953V-3.3h-5.953ZM325.4-11.641V0h-1.391l-6.328-9.141h-.125V0h-1.406V-11.641h1.359l6.375,9.156H324v-9.156ZM331.633.2a5.341,5.341,0,0,1-2.164-.4,3.409,3.409,0,0,1-1.434-1.125A3.216,3.216,0,0,1,327.445-3H328.9a1.834,1.834,0,0,0,.449,1.086,2.345,2.345,0,0,0,.988.641,3.892,3.892,0,0,0,1.3.211,3.772,3.772,0,0,0,1.449-.266,2.454,2.454,0,0,0,1.02-.742,1.754,1.754,0,0,0,.375-1.117,1.336,1.336,0,0,0-.328-.937,2.443,2.443,0,0,0-.855-.586,9.048,9.048,0,0,0-1.145-.4l-1.422-.406a5.275,5.275,0,0,1-2.16-1.121,2.476,2.476,0,0,1-.793-1.91,2.839,2.839,0,0,1,.527-1.707,3.483,3.483,0,0,1,1.43-1.137,4.846,4.846,0,0,1,2.012-.406,4.737,4.737,0,0,1,2,.4,3.536,3.536,0,0,1,1.391,1.094,2.723,2.723,0,0,1,.547,1.566H334.3a1.78,1.78,0,0,0-.824-1.336,3.174,3.174,0,0,0-1.785-.477,3.362,3.362,0,0,0-1.344.25,2.129,2.129,0,0,0-.9.688,1.649,1.649,0,0,0-.32,1,1.339,1.339,0,0,0,.383,1,2.706,2.706,0,0,0,.91.59q.527.211.957.336l1.172.328q.453.125,1.012.336a4.993,4.993,0,0,1,1.078.57,2.948,2.948,0,0,1,.855.918,2.632,2.632,0,0,1,.336,1.379,3.065,3.065,0,0,1-.492,1.7,3.4,3.4,0,0,1-1.43,1.211A5.248,5.248,0,0,1,331.633.2Z" transform="translate(959.821 3362)" fill="#040404"/>
    <g id="Group_11360" data-name="Group 11360" transform="translate(910.529 3337)">
      <g id="Group_11359" data-name="Group 11359" clip-path="url(#clip-path-2)">
        <g id="Group_11304" data-name="Group 11304" transform="translate(-0.003 0)">
          <path id="Path_239" data-name="Path 239" d="M636.294,79.539a31.291,31.291,0,0,1-1.349-24.707v-.009a24.724,24.724,0,0,0-8.822-6.567,24.576,24.576,0,0,0,10.91,32.79Z" transform="translate(-623.58 -43.762)" fill="#5b697b"/>
          <path id="Path_240" data-name="Path 240" d="M653.423,65.644A27.859,27.859,0,0,1,638.44,81.638a27.894,27.894,0,0,1,12.671-37.356q.552-.273,1.114-.52a27.853,27.853,0,0,1,1.2,21.882" transform="translate(-623.58 -43.762)" fill="#c44a37"/>
        </g>
      </g>
    </g>
    <g id="Group_11362" data-name="Group 11362" transform="translate(708.025 3336)">
      <g id="Group_11361" data-name="Group 11361" clip-path="url(#clip-path-3)">
        <g id="Group_11307" data-name="Group 11307" transform="translate(0.001 0)">
          <path id="Path_241" data-name="Path 241" d="M425.907,60.558l5.189-5.189a6.4,6.4,0,0,0-.714-.845l-4.473-4.473-4.485,4.485a6.365,6.365,0,0,0,1.613,10.206,13.5,13.5,0,0,1,2.87-4.184" transform="translate(-419.538 -42.762)" fill="#c44a37"/>
          <path id="Path_242" data-name="Path 242" d="M444.538,45.829l-3.068-3.067L438.4,45.835a4.371,4.371,0,1,0,6.181.035l-.041-.041" transform="translate(-419.538 -42.762)" fill="#c44a37"/>
          <path id="Path_243" data-name="Path 243" d="M443.7,61.927l-8.292-8.292-8.293,8.292a11.794,11.794,0,1,0,16.679.093l-.093-.093" transform="translate(-419.538 -42.762)" fill="#5b697b"/>
        </g>
      </g>
    </g>
    <g id="Group_11310" data-name="Group 11310" transform="translate(291.668 3339)">
      <g id="Group_11364" data-name="Group 11364">
        <g id="Group_11363" data-name="Group 11363" clip-path="url(#clip-path-4)">
          <g id="Group_11309" data-name="Group 11309" transform="translate(0 -0.002)">
            <path id="Path_244" data-name="Path 244" d="M38.084,48.539l1.177,1.178L35.24,53.74v2.78h2.784L42.045,52.5l1.179,1.178-2.919,2.916h5.664a11.611,11.611,0,0,0-9.639-10.83H35.167v5.692Z" transform="translate(0 -45.76)" fill="#5b697b"/>
            <path id="Path_245" data-name="Path 245" d="M40.3,58.258l2.916,2.916L42.041,62.35l-4.092-4.092h-2.71v2.709l4.094,4.094L38.156,66.24l-2.917-2.917V79.344C37.65,75.692,45.01,64.154,45.9,58.258Z" transform="translate(0 -45.76)" fill="#5b697b"/>
            <path id="Path_246" data-name="Path 246" d="M2.778,76.419l1.178-1.177,4.023,4.022h2.779V76.482l-4.023-4.02,1.179-1.18L10.83,74.2V68.535A11.618,11.618,0,0,0,0,78.175v1.161H5.692Z" transform="translate(0 -45.76)" fill="#5b697b"/>
            <path id="Path_247" data-name="Path 247" d="M12.5,74.2l2.914-2.916,1.177,1.179-4.091,4.1v2.707H15.2L19.3,75.177l1.178,1.178L17.56,79.269H33.583C29.931,76.859,18.393,69.5,12.5,68.606Z" transform="translate(0 -45.76)" fill="#5b697b"/>
            <path id="Path_248" data-name="Path 248" d="M30.657,66.239,29.484,65.06l4.024-4.024V58.258H30.721L26.7,62.279,25.522,61.1l2.914-2.918H22.821c.8,5.722,8.155,17.1,10.753,20.968V63.323Z" transform="translate(0 -45.76)" fill="#c44a37"/>
            <path id="Path_249" data-name="Path 249" d="M25.518,53.6l1.177-1.178,4.1,4.092H33.5V53.811l-4.095-4.094,1.178-1.178L33.5,51.455v-5.7H32.413a11.614,11.614,0,0,0-9.639,10.754h5.661Z" transform="translate(0 -45.76)" fill="#c44a37"/>
            <path id="Path_250" data-name="Path 250" d="M48.264,76.417l1.178-1.177,4.024,4.023h2.779v-2.78L52.222,72.46,53.4,71.282,56.317,74.2V68.581c-5.721.8-17.1,8.157-20.966,10.753H51.184Z" transform="translate(0 -45.76)" fill="#c44a37"/>
            <path id="Path_251" data-name="Path 251" d="M60.9,71.281l1.18,1.178-4.094,4.094v2.71h2.709l4.094-4.1,1.177,1.178-2.914,2.917h5.691v-1.09a11.609,11.609,0,0,0-10.754-9.639v5.663Z" transform="translate(0 -45.76)" fill="#c44a37"/>
          </g>
        </g>
      </g>
    </g>
    <path id="Path_255" data-name="Path 255" d="M1.031-11.641H2.719L6.672-1.984h.141l3.953-9.656h1.742V0H11.125V-8.844h-.109L7.352,0H6.086L2.469-8.844H2.359V0H1.031ZM15.535,0H14.05l4.281-11.641h1.453L24.05,0H22.582L19.1-9.8H19Zm.547-4.547h5.953V-3.3H16.082ZM29.788.156A5.033,5.033,0,0,1,27.073-.57a4.883,4.883,0,0,1-1.82-2.066A7.185,7.185,0,0,1,24.6-5.812,7.23,7.23,0,0,1,25.253-9a4.925,4.925,0,0,1,1.8-2.07,4.833,4.833,0,0,1,2.641-.727,5.261,5.261,0,0,1,1.719.273,4.6,4.6,0,0,1,1.422.781,4.574,4.574,0,0,1,1.043,1.2A4.7,4.7,0,0,1,34.46-8H33.007a4.266,4.266,0,0,0-.488-1.035,3.184,3.184,0,0,0-.723-.781,3.152,3.152,0,0,0-.945-.5,3.69,3.69,0,0,0-1.156-.172,3.448,3.448,0,0,0-1.879.535,3.719,3.719,0,0,0-1.352,1.578,5.85,5.85,0,0,0-.5,2.559,5.766,5.766,0,0,0,.508,2.547,3.7,3.7,0,0,0,1.375,1.574,3.629,3.629,0,0,0,1.945.535,3.5,3.5,0,0,0,1.758-.43A3.047,3.047,0,0,0,32.733-2.8a3.808,3.808,0,0,0,.43-1.855l.438.094H30.1v-1.25h4.438v1.25a4.917,4.917,0,0,1-.609,2.5A4.234,4.234,0,0,1,32.245-.426,5.075,5.075,0,0,1,29.788.156Zm16.136-11.8V0H44.534L38.206-9.141h-.125V0H36.674V-11.641h1.359l6.375,9.156h.109v-9.156Zm3.949,0V0H48.467V-11.641ZM52.416,0V-11.641H59.4v1.25H53.822v4.063h5.047v1.25H53.822V0ZM66.232.156A4.9,4.9,0,0,1,63.583-.57a5,5,0,0,1-1.832-2.066,7.042,7.042,0,0,1-.668-3.176A7.086,7.086,0,0,1,61.751-9a4.991,4.991,0,0,1,1.832-2.07,4.9,4.9,0,0,1,2.648-.727,4.872,4.872,0,0,1,2.648.727A4.984,4.984,0,0,1,70.7-9a7.122,7.122,0,0,1,.664,3.188A7.077,7.077,0,0,1,70.7-2.637,4.988,4.988,0,0,1,68.88-.57,4.872,4.872,0,0,1,66.232.156Zm0-1.312a3.528,3.528,0,0,0,1.91-.535A3.7,3.7,0,0,0,69.5-3.266,5.8,5.8,0,0,0,70-5.812a5.85,5.85,0,0,0-.5-2.559,3.7,3.7,0,0,0-1.359-1.578,3.528,3.528,0,0,0-1.91-.535,3.548,3.548,0,0,0-1.914.535A3.714,3.714,0,0,0,62.95-8.371a5.812,5.812,0,0,0-.508,2.559,5.766,5.766,0,0,0,.508,2.547,3.718,3.718,0,0,0,1.367,1.574A3.548,3.548,0,0,0,66.232-1.156ZM78.149.156A4.9,4.9,0,0,1,75.5-.57a5,5,0,0,1-1.832-2.066A7.042,7.042,0,0,1,73-5.812,7.086,7.086,0,0,1,73.669-9,4.991,4.991,0,0,1,75.5-11.07a4.9,4.9,0,0,1,2.648-.727,4.872,4.872,0,0,1,2.648.727A4.984,4.984,0,0,1,82.618-9a7.122,7.122,0,0,1,.664,3.188,7.077,7.077,0,0,1-.664,3.176A4.988,4.988,0,0,1,80.8-.57,4.872,4.872,0,0,1,78.149.156Zm0-1.312a3.528,3.528,0,0,0,1.91-.535,3.7,3.7,0,0,0,1.359-1.574,5.8,5.8,0,0,0,.5-2.547,5.85,5.85,0,0,0-.5-2.559,3.7,3.7,0,0,0-1.359-1.578,3.528,3.528,0,0,0-1.91-.535,3.548,3.548,0,0,0-1.914.535,3.714,3.714,0,0,0-1.367,1.578,5.812,5.812,0,0,0-.508,2.559,5.766,5.766,0,0,0,.508,2.547,3.718,3.718,0,0,0,1.367,1.574A3.548,3.548,0,0,0,78.149-1.156ZM88.965,0h-2.8V-1.25h2.7A4.688,4.688,0,0,0,91.266-1.8a3.433,3.433,0,0,0,1.418-1.586,5.89,5.89,0,0,0,.469-2.453,5.852,5.852,0,0,0-.461-2.426,3.427,3.427,0,0,0-1.379-1.57,4.374,4.374,0,0,0-2.285-.551H86.106v-1.25h3.016a5.722,5.722,0,0,1,2.9.7,4.576,4.576,0,0,1,1.848,2,6.963,6.963,0,0,1,.641,3.105,6.98,6.98,0,0,1-.648,3.129A4.609,4.609,0,0,1,91.977-.7,6.012,6.012,0,0,1,88.965,0ZM86.777-11.641V0H85.371V-11.641ZM100.831,0V-11.641h7.031v1.25h-5.625V-6.5h5.25v1.25h-5.25v4h5.7V0Zm18.543-11.641V0h-1.391l-6.328-9.141h-.125V0h-1.406V-11.641h1.359l6.375,9.156h.109v-9.156ZM121.916,0V-11.641h1.406v5.188h6.2v-5.187h1.406V0h-1.406V-5.2h-6.2V0Zm12.042,0h-1.484l4.281-11.641h1.453L142.474,0h-1.469l-3.484-9.8h-.094Zm.547-4.547h5.953V-3.3h-5.953Zm18.761-7.094V0h-1.391l-6.328-9.141h-.125V0h-1.406V-11.641h1.359l6.375,9.156h.109v-9.156ZM160.5.156a4.9,4.9,0,0,1-2.648-.727,4.969,4.969,0,0,1-1.828-2.066,7.078,7.078,0,0,1-.664-3.176A7.122,7.122,0,0,1,156.02-9a4.964,4.964,0,0,1,1.828-2.07A4.9,4.9,0,0,1,160.5-11.8a5.216,5.216,0,0,1,1.652.258,4.621,4.621,0,0,1,1.4.746,4.234,4.234,0,0,1,1.043,1.2,4.709,4.709,0,0,1,.574,1.6h-1.406a2.977,2.977,0,0,0-.434-1.07,3,3,0,0,0-.75-.777,3.284,3.284,0,0,0-.973-.477,3.823,3.823,0,0,0-1.109-.16,3.548,3.548,0,0,0-1.914.535,3.689,3.689,0,0,0-1.363,1.578,5.85,5.85,0,0,0-.5,2.559,5.8,5.8,0,0,0,.5,2.547,3.693,3.693,0,0,0,1.363,1.574,3.548,3.548,0,0,0,1.914.535,3.823,3.823,0,0,0,1.109-.16,3.284,3.284,0,0,0,.973-.477,3,3,0,0,0,.75-.777,2.977,2.977,0,0,0,.434-1.07h1.406a4.67,4.67,0,0,1-.574,1.6,4.254,4.254,0,0,1-1.043,1.191,4.621,4.621,0,0,1-1.4.746A5.216,5.216,0,0,1,160.5.156ZM167.18,0V-11.641h7.031v1.25h-5.625V-6.5h5.25v1.25h-5.25v4h5.7V0Zm12.886,0h-2.8V-1.25h2.7a4.688,4.688,0,0,0,2.395-.555,3.433,3.433,0,0,0,1.418-1.586,5.89,5.89,0,0,0,.469-2.453,5.852,5.852,0,0,0-.461-2.426,3.427,3.427,0,0,0-1.379-1.57,4.374,4.374,0,0,0-2.285-.551h-2.922v-1.25h3.016a5.722,5.722,0,0,1,2.9.7,4.576,4.576,0,0,1,1.848,2,6.963,6.963,0,0,1,.641,3.105,6.98,6.98,0,0,1-.648,3.129A4.609,4.609,0,0,1,183.078-.7,6.012,6.012,0,0,1,180.066,0Zm-2.187-11.641V0h-1.406V-11.641Zm23.3,0V0h-1.391l-6.328-9.141h-.125V0h-1.406V-11.641h1.359l6.375,9.156h.109v-9.156Zm10.183,0h1.406v7.7a4.066,4.066,0,0,1-.559,2.129,3.944,3.944,0,0,1-1.574,1.473A5.011,5.011,0,0,1,208.256.2a5.035,5.035,0,0,1-2.387-.539,3.966,3.966,0,0,1-1.582-1.473,4.044,4.044,0,0,1-.562-2.129v-7.7h1.406v7.594a3.028,3.028,0,0,0,.375,1.516,2.652,2.652,0,0,0,1.078,1.043,3.476,3.476,0,0,0,1.672.379,3.43,3.43,0,0,0,1.664-.379,2.664,2.664,0,0,0,1.07-1.043,3.028,3.028,0,0,0,.375-1.516Zm3.308,1.25v-1.25h8.734v1.25h-3.656V0h-1.406V-10.391ZM225.31,0V-11.641h3.938a4.736,4.736,0,0,1,2.238.465A3.009,3.009,0,0,1,232.779-9.9a3.918,3.918,0,0,1,.422,1.84,3.861,3.861,0,0,1-.418,1.82A2.914,2.914,0,0,1,231.494-5a4.855,4.855,0,0,1-2.23.449h-3.172V-5.812h3.125a3.516,3.516,0,0,0,1.508-.273,1.735,1.735,0,0,0,.828-.777,2.6,2.6,0,0,0,.258-1.2,2.711,2.711,0,0,0-.262-1.227,1.811,1.811,0,0,0-.832-.812,3.371,3.371,0,0,0-1.516-.289h-2.484V0Zm6.7,0L229.2-5.234h1.594L233.654,0Zm4.667-11.641V0h-1.406V-11.641Zm1.9,1.25v-1.25h8.734v1.25h-3.656V0h-1.406V-10.391Zm12.042-1.25V0h-1.406V-11.641Zm7.238,11.8a4.9,4.9,0,0,1-2.648-.727,5,5,0,0,1-1.832-2.066,7.042,7.042,0,0,1-.668-3.176A7.086,7.086,0,0,1,253.382-9a4.991,4.991,0,0,1,1.832-2.07,4.9,4.9,0,0,1,2.648-.727,4.872,4.872,0,0,1,2.648.727A4.984,4.984,0,0,1,262.331-9,7.121,7.121,0,0,1,263-5.812a7.077,7.077,0,0,1-.664,3.176,4.988,4.988,0,0,1-1.82,2.066A4.872,4.872,0,0,1,257.863.156Zm0-1.312a3.528,3.528,0,0,0,1.91-.535,3.7,3.7,0,0,0,1.359-1.574,5.8,5.8,0,0,0,.5-2.547,5.85,5.85,0,0,0-.5-2.559,3.7,3.7,0,0,0-1.359-1.578,3.528,3.528,0,0,0-1.91-.535,3.548,3.548,0,0,0-1.914.535,3.714,3.714,0,0,0-1.367,1.578,5.811,5.811,0,0,0-.508,2.559,5.766,5.766,0,0,0,.508,2.547,3.718,3.718,0,0,0,1.367,1.574A3.548,3.548,0,0,0,257.863-1.156Zm16.472-10.484V0h-1.391l-6.328-9.141h-.125V0h-1.406V-11.641h1.359l6.375,9.156h.109v-9.156Z" transform="translate(1395.895 3362)" fill="#040404"/>
    <path id="Path_219" data-name="Path 219" d="M1088.382,47.851a11.379,11.379,0,0,0-16.069,0l-1.821,1.821-1.821-1.821a11.268,11.268,0,0,0-8.034-3.321,11.574,11.574,0,0,0-11.034,8.249,10.5,10.5,0,0,0,2.571,10.6l17.032,16.925a1.876,1.876,0,0,0,2.652.026l.026-.026,16.5-16.5a11.314,11.314,0,0,0,0-15.962Z" transform="translate(283.687 3293.238)" fill="#c44a37"/>
    <path id="Path_253" data-name="Path 253" d="M1.516,0H.031L4.313-11.641H5.766L10.031,0H8.563L5.078-9.8H4.984Zm.547-4.547H8.016V-3.3H2.063ZM15.167,0h-2.8V-1.25h2.7A4.688,4.688,0,0,0,17.468-1.8a3.433,3.433,0,0,0,1.418-1.586,5.89,5.89,0,0,0,.469-2.453,5.852,5.852,0,0,0-.461-2.426,3.427,3.427,0,0,0-1.379-1.57,4.374,4.374,0,0,0-2.285-.551H12.308v-1.25h3.016a5.722,5.722,0,0,1,2.9.7,4.576,4.576,0,0,1,1.848,2,6.963,6.963,0,0,1,.641,3.105,6.98,6.98,0,0,1-.648,3.129A4.609,4.609,0,0,1,18.179-.7,6.012,6.012,0,0,1,15.167,0ZM12.98-11.641V0H11.574V-11.641ZM26.4,0H23.6V-1.25h2.7A4.688,4.688,0,0,0,28.7-1.8a3.433,3.433,0,0,0,1.418-1.586,5.89,5.89,0,0,0,.469-2.453,5.852,5.852,0,0,0-.461-2.426,3.427,3.427,0,0,0-1.379-1.57,4.374,4.374,0,0,0-2.285-.551H23.538v-1.25h3.016a5.722,5.722,0,0,1,2.9.7,4.576,4.576,0,0,1,1.848,2,6.963,6.963,0,0,1,.641,3.105A6.98,6.98,0,0,1,31.3-2.715,4.609,4.609,0,0,1,29.409-.7,6.012,6.012,0,0,1,26.4,0ZM24.21-11.641V0H22.8V-11.641Zm11.23,0V0H34.034V-11.641Zm1.9,1.25v-1.25h8.734v1.25H42.42V0H41.014V-10.391Zm12.042-1.25V0H47.978V-11.641Zm3.027,0,3.453,9.8H56l3.453-9.8h1.469L56.661,0H55.208L50.927-11.641ZM62.469,0V-11.641H69.5v1.25H63.876V-6.5h5.25v1.25h-5.25v4h5.7V0ZM75.992,0V-11.641h6.984v1.25H77.4v4.063h5.047v1.25H77.4V0Zm9.121,0V-11.641H89.05a4.736,4.736,0,0,1,2.238.465A3.009,3.009,0,0,1,92.581-9.9,3.918,3.918,0,0,1,93-8.062a3.86,3.86,0,0,1-.418,1.82A2.914,2.914,0,0,1,91.3-5a4.855,4.855,0,0,1-2.23.449H85.894V-5.812h3.125a3.516,3.516,0,0,0,1.508-.273,1.735,1.735,0,0,0,.828-.777,2.6,2.6,0,0,0,.258-1.2,2.711,2.711,0,0,0-.262-1.227,1.811,1.811,0,0,0-.832-.812A3.371,3.371,0,0,0,89-10.391H86.519V0Zm6.7,0L89-5.234H90.6L93.456,0Zm3.261,0V-11.641h7.031v1.25H96.483V-6.5h5.25v1.25h-5.25v4h5.7V0Zm9.292,0V-11.641H111.4v1.25h-5.625V-6.5h5.25v1.25h-5.25v4h5.7V0Z" transform="translate(755.772 3362)" fill="#040404"/>
  </g>
</svg>