<svg xmlns="http://www.w3.org/2000/svg" width="34.989" height="8.706" viewBox="0 0 34.989 8.706">
  <g id="ic-arrow" transform="translate(-193.202 -241.169)">
    <path id="Path_235" data-name="Path 235" d="M226.879,273.477h-32.74a.937.937,0,0,1,0-1.874h32.74a.937.937,0,1,1,0,1.874Z" transform="translate(0 -27.039)"/>
    <path id="Path_236" data-name="Path 236" d="M453.806,249.875a.891.891,0,0,1-.75-.375.925.925,0,0,1,.25-1.312l3.562-2.562.125-.125s0-.062-.125-.125l-3.624-2.5a.945.945,0,1,1,1.063-1.562l3.624,2.5a1.983,1.983,0,0,1,.937,1.687,2.063,2.063,0,0,1-.937,1.687l-3.562,2.562a1.825,1.825,0,0,1-.562.125Z" transform="translate(-230.676)"/>
  </g>
</svg>
