<svg xmlns="http://www.w3.org/2000/svg" width="13.2" height="7.6" viewBox="0 0 13.2 7.6">
  <g id="Group_11392" data-name="Group 11392" transform="translate(-580.8 -906.9)">
    <path id="Path_279" data-name="Path 279" d="M5.6,6.6a1,1,0,0,1-.707-.293l-5.6-5.6a1,1,0,0,1,0-1.414,1,1,0,0,1,1.414,0l5.6,5.6A1,1,0,0,1,5.6,6.6Z" transform="translate(593 907.9) rotate(90)"/>
    <path id="Path_280" data-name="Path 280" d="M0,6.6a1,1,0,0,1-.707-.293,1,1,0,0,1,0-1.414l5.6-5.6a1,1,0,0,1,1.414,0,1,1,0,0,1,0,1.414l-5.6,5.6A1,1,0,0,1,0,6.6Z" transform="translate(587.4 907.9) rotate(90)"/>
  </g>
</svg>
