<svg xmlns="http://www.w3.org/2000/svg" width="15.743" height="15.613" viewBox="0 0 15.743 15.613">
  <g id="ic-search" transform="translate(-1801.971 -78)">
    <g id="Group_11291" data-name="Group 11291" transform="translate(1266.832 -287.41)">
      <g id="Group_11289" data-name="Group 11289">
        <path id="Path_239" data-name="Path 239" d="M458.132,382.023a.747.747,0,0,1-.522-.211L454.4,378.7a.75.75,0,1,1,1.044-1.077l3.213,3.113a.75.75,0,0,1-.522,1.289Z" transform="translate(92 -1)"/>
      </g>
    </g>
    <path id="Path_238" data-name="Path 238" d="M450.554,380.5a6.915,6.915,0,1,1,6.916-6.919,6.918,6.918,0,0,1-6.916,6.919Zm0-12.334a5.417,5.417,0,1,0,3.733,9.341,5.365,5.365,0,0,0,1.683-3.924A5.432,5.432,0,0,0,450.554,368.169Z" transform="translate(1358.326 -288.669)"/>
  </g>
</svg>
