<svg xmlns="http://www.w3.org/2000/svg" xmlns:xlink="http://www.w3.org/1999/xlink" width="348.771" height="80.582" viewBox="0 0 348.771 80.582">
  <defs>
    <clipPath id="clip-path">
      <rect id="Rectangle_71" data-name="Rectangle 71" width="31.527" height="37.877" fill="#040404"/>
    </clipPath>
    <clipPath id="clip-path-2">
      <rect id="Rectangle_72" data-name="Rectangle 72" width="27.666" height="39.342" fill="#5b697b"/>
    </clipPath>
    <clipPath id="clip-path-3">
      <rect id="Rectangle_73" data-name="Rectangle 73" width="60.552" height="29.582" fill="#5b697b"/>
    </clipPath>
  </defs>
  <g id="icon-list-product-mob" transform="translate(19453.297 19920.422)">
    <g id="Group_13382" data-name="Group 13382" transform="translate(-309 46)">
      <path id="Path_24937" data-name="Path 24937" d="M.645,2.725H1.7L4.17,8.76h.088L6.729,2.725H7.817V10H6.953V4.473H6.885L4.595,10H3.8L1.543,4.473H1.475V10H.645ZM9.409,10H8.481l2.676-7.275h.908L14.731,10h-.918L11.636,3.877h-.059Zm.342-2.842h3.721v.781H9.751ZM18.018,10.1a3.145,3.145,0,0,1-1.7-.454,3.052,3.052,0,0,1-1.138-1.292,4.491,4.491,0,0,1-.408-1.985,4.519,4.519,0,0,1,.408-1.992,3.078,3.078,0,0,1,1.125-1.294,3.021,3.021,0,0,1,1.65-.454,3.288,3.288,0,0,1,1.074.171,2.851,2.851,0,0,1,1.541,1.24A2.94,2.94,0,0,1,20.938,5h-.908a2.666,2.666,0,0,0-.305-.647,1.99,1.99,0,0,0-.452-.488,1.97,1.97,0,0,0-.591-.31,2.306,2.306,0,0,0-.723-.107,2.155,2.155,0,0,0-1.174.334,2.324,2.324,0,0,0-.845.986,3.656,3.656,0,0,0-.315,1.6,3.6,3.6,0,0,0,.317,1.592,2.312,2.312,0,0,0,.859.984,2.268,2.268,0,0,0,1.216.334,2.189,2.189,0,0,0,1.1-.269,1.9,1.9,0,0,0,.742-.759,2.38,2.38,0,0,0,.269-1.16l.273.059H18.213V6.367h2.773v.781a3.073,3.073,0,0,1-.381,1.56,2.646,2.646,0,0,1-1.052,1.025A3.172,3.172,0,0,1,18.018,10.1ZM27.8,2.725V10h-.869L22.979,4.287H22.9V10h-.879V2.725h.85l3.984,5.723h.068V2.725Zm2.168,0V10h-.879V2.725ZM31.26,10V2.725h4.365v.781H32.139V6.045h3.154v.781H32.139V10Zm8.335.1a3.061,3.061,0,0,1-1.655-.454,3.122,3.122,0,0,1-1.145-1.292,4.4,4.4,0,0,1-.417-1.985,4.429,4.429,0,0,1,.417-1.992,3.119,3.119,0,0,1,1.145-1.294,3.244,3.244,0,0,1,3.311,0,3.115,3.115,0,0,1,1.138,1.294A4.451,4.451,0,0,1,42.8,6.367a4.423,4.423,0,0,1-.415,1.985A3.118,3.118,0,0,1,41.25,9.644,3.045,3.045,0,0,1,39.595,10.1Zm0-.82a2.205,2.205,0,0,0,1.194-.334,2.314,2.314,0,0,0,.85-.984,3.627,3.627,0,0,0,.315-1.592,3.656,3.656,0,0,0-.315-1.6,2.312,2.312,0,0,0-.85-.986,2.3,2.3,0,0,0-2.39,0,2.321,2.321,0,0,0-.854.986,3.632,3.632,0,0,0-.317,1.6,3.6,3.6,0,0,0,.317,1.592,2.324,2.324,0,0,0,.854.984A2.217,2.217,0,0,0,39.595,9.277Zm7.148.82a3.061,3.061,0,0,1-1.655-.454,3.122,3.122,0,0,1-1.145-1.292,4.4,4.4,0,0,1-.417-1.985,4.429,4.429,0,0,1,.417-1.992,3.119,3.119,0,0,1,1.145-1.294,3.244,3.244,0,0,1,3.311,0,3.115,3.115,0,0,1,1.138,1.294,4.451,4.451,0,0,1,.415,1.992,4.423,4.423,0,0,1-.415,1.985A3.118,3.118,0,0,1,48.4,9.644,3.045,3.045,0,0,1,46.743,10.1Zm0-.82a2.205,2.205,0,0,0,1.194-.334,2.314,2.314,0,0,0,.85-.984A3.627,3.627,0,0,0,49.1,6.367a3.656,3.656,0,0,0-.315-1.6,2.312,2.312,0,0,0-.85-.986,2.3,2.3,0,0,0-2.39,0,2.321,2.321,0,0,0-.854.986,3.632,3.632,0,0,0-.317,1.6,3.6,3.6,0,0,0,.317,1.592,2.324,2.324,0,0,0,.854.984A2.217,2.217,0,0,0,46.743,9.277ZM53.2,10H51.455V9.219h1.689a2.93,2.93,0,0,0,1.5-.347,2.145,2.145,0,0,0,.886-.991,3.681,3.681,0,0,0,.293-1.533,3.657,3.657,0,0,0-.288-1.516,2.142,2.142,0,0,0-.862-.981,2.734,2.734,0,0,0-1.428-.344H51.416V2.725H53.3a3.576,3.576,0,0,1,1.814.435A2.86,2.86,0,0,1,56.27,4.407a4.352,4.352,0,0,1,.4,1.941A4.363,4.363,0,0,1,56.265,8.3a2.881,2.881,0,0,1-1.179,1.257A3.757,3.757,0,0,1,53.2,10ZM51.836,2.725V10h-.879V2.725ZM60.02,10V2.725h4.395v.781H60.9V5.938H64.18v.781H60.9v2.5h3.564V10ZM71.309,2.725V10h-.869L66.484,4.287h-.078V10h-.879V2.725h.85l3.984,5.723h.068V2.725ZM72.6,10V2.725h.879V5.967h3.877V2.725h.879V10h-.879V6.748H73.477V10Zm7.227,0H78.9l2.676-7.275h.908L85.146,10h-.918L82.051,3.877h-.059Zm.342-2.842h3.721v.781H80.166ZM91.592,2.725V10h-.869L86.768,4.287h-.078V10h-.879V2.725h.85l3.984,5.723h.068V2.725ZM95.811,10.1a3.061,3.061,0,0,1-1.655-.454,3.106,3.106,0,0,1-1.143-1.292A4.423,4.423,0,0,1,92.6,6.367a4.451,4.451,0,0,1,.415-1.992,3.1,3.1,0,0,1,1.143-1.294,3.061,3.061,0,0,1,1.655-.454,3.26,3.26,0,0,1,1.033.161,2.888,2.888,0,0,1,.876.466A2.646,2.646,0,0,1,98.372,4a2.943,2.943,0,0,1,.359,1h-.879a1.837,1.837,0,0,0-.74-1.155,2.053,2.053,0,0,0-.608-.3,2.389,2.389,0,0,0-.693-.1,2.217,2.217,0,0,0-1.2.334,2.306,2.306,0,0,0-.852.986,3.656,3.656,0,0,0-.315,1.6,3.627,3.627,0,0,0,.315,1.592,2.308,2.308,0,0,0,.852.984,2.217,2.217,0,0,0,1.2.334,2.389,2.389,0,0,0,.693-.1,2.053,2.053,0,0,0,.608-.3,1.837,1.837,0,0,0,.74-1.155h.879a2.919,2.919,0,0,1-.359,1,2.659,2.659,0,0,1-.652.745,2.888,2.888,0,0,1-.876.466A3.26,3.26,0,0,1,95.811,10.1Zm3.877-.1V2.725h4.395v.781h-3.516V5.938h3.281v.781h-3.281v2.5h3.564V10Zm7.754,0h-1.748V9.219h1.689a2.93,2.93,0,0,0,1.5-.347,2.145,2.145,0,0,0,.886-.991,3.681,3.681,0,0,0,.293-1.533,3.657,3.657,0,0,0-.288-1.516,2.142,2.142,0,0,0-.862-.981,2.734,2.734,0,0,0-1.428-.344h-1.826V2.725h1.885a3.576,3.576,0,0,1,1.814.435,2.86,2.86,0,0,1,1.155,1.248,4.352,4.352,0,0,1,.4,1.941A4.363,4.363,0,0,1,110.5,8.3a2.881,2.881,0,0,1-1.179,1.257A3.757,3.757,0,0,1,107.441,10Zm-1.367-7.275V10H105.2V2.725Zm-99.648,12V22H5.557L1.6,16.287H1.523V22H.645V14.725h.85l3.984,5.723h.068V14.725Zm6.064,0h.879v4.814a2.541,2.541,0,0,1-.349,1.331,2.465,2.465,0,0,1-.984.92,3.132,3.132,0,0,1-1.489.337,3.147,3.147,0,0,1-1.492-.337,2.479,2.479,0,0,1-.989-.92,2.527,2.527,0,0,1-.352-1.331V14.725h.879v4.746a1.893,1.893,0,0,0,.234.947,1.657,1.657,0,0,0,.674.652,2.172,2.172,0,0,0,1.045.237,2.144,2.144,0,0,0,1.04-.237,1.665,1.665,0,0,0,.669-.652,1.893,1.893,0,0,0,.234-.947Zm1.768.781v-.781h5.459v.781H17.432V22h-.879V15.506ZM20.605,22V14.725h2.461a2.96,2.96,0,0,1,1.4.291,1.88,1.88,0,0,1,.808.8,2.449,2.449,0,0,1,.264,1.15,2.413,2.413,0,0,1-.261,1.138,1.821,1.821,0,0,1-.806.779,3.034,3.034,0,0,1-1.394.281H21.094v-.791h1.953a2.2,2.2,0,0,0,.942-.171,1.084,1.084,0,0,0,.518-.486,1.627,1.627,0,0,0,.161-.75,1.694,1.694,0,0,0-.164-.767,1.132,1.132,0,0,0-.52-.508,2.107,2.107,0,0,0-.947-.181H21.484V22Zm4.189,0-1.758-3.271h1L25.82,22Zm2.617-7.275V22h-.879V14.725Zm.889.781v-.781H33.76v.781H31.475V22H30.6V15.506Zm7.227-.781V22h-.879V14.725ZM39.751,22.1a3.061,3.061,0,0,1-1.655-.454,3.122,3.122,0,0,1-1.145-1.292,4.4,4.4,0,0,1-.417-1.985,4.429,4.429,0,0,1,.417-1.992A3.119,3.119,0,0,1,38.1,15.081a3.244,3.244,0,0,1,3.311,0,3.115,3.115,0,0,1,1.138,1.294,4.451,4.451,0,0,1,.415,1.992,4.423,4.423,0,0,1-.415,1.985,3.118,3.118,0,0,1-1.138,1.292A3.045,3.045,0,0,1,39.751,22.1Zm0-.82a2.205,2.205,0,0,0,1.194-.334,2.314,2.314,0,0,0,.85-.984,3.627,3.627,0,0,0,.315-1.592,3.656,3.656,0,0,0-.315-1.6,2.312,2.312,0,0,0-.85-.986,2.3,2.3,0,0,0-2.39,0,2.321,2.321,0,0,0-.854.986,3.632,3.632,0,0,0-.317,1.6,3.6,3.6,0,0,0,.317,1.592,2.324,2.324,0,0,0,.854.984A2.217,2.217,0,0,0,39.751,21.277Zm10-6.553V22h-.869l-3.955-5.713h-.078V22h-.879V14.725h.85L48.8,20.447h.068V14.725Z" transform="translate(-18906.434 -19912.422)" fill="#040404"/>
      <path id="Path_24933" data-name="Path 24933" d="M426.223,347.741a9.527,9.527,0,0,0-13.453,0l-1.525,1.525-1.525-1.525a9.433,9.433,0,0,0-6.727-2.78,9.69,9.69,0,0,0-9.238,6.906,8.787,8.787,0,0,0,2.153,8.879l14.259,14.17a1.569,1.569,0,0,0,2.242,0L426.222,361.1a9.472,9.472,0,0,0,0-13.363Z" transform="translate(-19342.695 -20261.227)" fill="#c44a37"/>
    </g>
    <g id="Group_13379" data-name="Group 13379">
      <path id="Path_24934" data-name="Path 24934" d="M.645,10V2.725H3.105a2.822,2.822,0,0,1,1.4.308,1.955,1.955,0,0,1,.808.83,2.553,2.553,0,0,1,.264,1.167A2.592,2.592,0,0,1,5.315,6.2a1.947,1.947,0,0,1-.806.837,2.793,2.793,0,0,1-1.394.31H1.357V6.563H3.086a1.92,1.92,0,0,0,.942-.2,1.2,1.2,0,0,0,.518-.549,1.849,1.849,0,0,0,.161-.784,1.828,1.828,0,0,0-.161-.784,1.186,1.186,0,0,0-.52-.542,1.966,1.966,0,0,0-.95-.2H1.523V10Zm5.879,0V2.725H8.984a2.96,2.96,0,0,1,1.4.291,1.88,1.88,0,0,1,.808.8,2.449,2.449,0,0,1,.264,1.15A2.413,2.413,0,0,1,11.194,6.1a1.821,1.821,0,0,1-.806.779,3.034,3.034,0,0,1-1.394.281H7.012V6.367H8.965A2.2,2.2,0,0,0,9.907,6.2a1.084,1.084,0,0,0,.518-.486,1.627,1.627,0,0,0,.161-.75,1.694,1.694,0,0,0-.164-.767,1.132,1.132,0,0,0-.52-.508,2.107,2.107,0,0,0-.947-.181H7.4V10Zm4.189,0L8.955,6.729h1L11.738,10Zm4.673.1a3.061,3.061,0,0,1-1.655-.454,3.122,3.122,0,0,1-1.145-1.292,4.4,4.4,0,0,1-.417-1.985,4.429,4.429,0,0,1,.417-1.992A3.119,3.119,0,0,1,13.73,3.081a3.244,3.244,0,0,1,3.311,0,3.115,3.115,0,0,1,1.138,1.294,4.451,4.451,0,0,1,.415,1.992,4.423,4.423,0,0,1-.415,1.985,3.118,3.118,0,0,1-1.138,1.292A3.045,3.045,0,0,1,15.386,10.1Zm0-.82a2.205,2.205,0,0,0,1.194-.334,2.314,2.314,0,0,0,.85-.984,3.627,3.627,0,0,0,.315-1.592,3.656,3.656,0,0,0-.315-1.6,2.312,2.312,0,0,0-.85-.986,2.3,2.3,0,0,0-2.39,0,2.321,2.321,0,0,0-.854.986,3.632,3.632,0,0,0-.317,1.6,3.6,3.6,0,0,0,.317,1.592,2.324,2.324,0,0,0,.854.984A2.217,2.217,0,0,0,15.386,9.277Zm6.46.723H20.1V9.219h1.689a2.93,2.93,0,0,0,1.5-.347,2.145,2.145,0,0,0,.886-.991,3.681,3.681,0,0,0,.293-1.533,3.657,3.657,0,0,0-.288-1.516,2.142,2.142,0,0,0-.862-.981,2.734,2.734,0,0,0-1.428-.344H20.059V2.725h1.885a3.576,3.576,0,0,1,1.814.435,2.86,2.86,0,0,1,1.155,1.248,4.352,4.352,0,0,1,.4,1.941A4.363,4.363,0,0,1,24.907,8.3a2.881,2.881,0,0,1-1.179,1.257A3.757,3.757,0,0,1,21.846,10ZM20.479,2.725V10H19.6V2.725Zm10.615,0h.879V7.539a2.541,2.541,0,0,1-.349,1.331,2.465,2.465,0,0,1-.984.92,3.465,3.465,0,0,1-2.981,0,2.479,2.479,0,0,1-.989-.92,2.527,2.527,0,0,1-.352-1.331V2.725H27.2V7.471a1.893,1.893,0,0,0,.234.947,1.657,1.657,0,0,0,.674.652,2.172,2.172,0,0,0,1.045.237,2.144,2.144,0,0,0,1.04-.237,1.665,1.665,0,0,0,.669-.652,1.893,1.893,0,0,0,.234-.947Zm5.1,7.373a3.061,3.061,0,0,1-1.655-.454,3.106,3.106,0,0,1-1.143-1.292,4.423,4.423,0,0,1-.415-1.985,4.451,4.451,0,0,1,.415-1.992,3.1,3.1,0,0,1,1.143-1.294,3.061,3.061,0,0,1,1.655-.454,3.26,3.26,0,0,1,1.033.161,2.888,2.888,0,0,1,.876.466A2.646,2.646,0,0,1,38.752,4a2.943,2.943,0,0,1,.359,1h-.879a1.837,1.837,0,0,0-.74-1.155,2.052,2.052,0,0,0-.608-.3,2.389,2.389,0,0,0-.693-.1,2.217,2.217,0,0,0-1.2.334,2.306,2.306,0,0,0-.852.986,3.656,3.656,0,0,0-.315,1.6,3.627,3.627,0,0,0,.315,1.592A2.308,2.308,0,0,0,35,8.943a2.217,2.217,0,0,0,1.2.334,2.389,2.389,0,0,0,.693-.1,2.052,2.052,0,0,0,.608-.3,1.837,1.837,0,0,0,.74-1.155h.879a2.919,2.919,0,0,1-.359,1,2.659,2.659,0,0,1-.652.745,2.888,2.888,0,0,1-.876.466A3.26,3.26,0,0,1,36.191,10.1Zm3.477-6.592V2.725h5.459v.781H42.842V10h-.879V3.506Zm8.652,6.621a3.338,3.338,0,0,1-1.353-.251,2.131,2.131,0,0,1-.9-.7A2.01,2.01,0,0,1,45.7,8.125h.908a1.146,1.146,0,0,0,.281.679,1.465,1.465,0,0,0,.618.4,2.433,2.433,0,0,0,.811.132,2.358,2.358,0,0,0,.906-.166,1.533,1.533,0,0,0,.637-.464,1.1,1.1,0,0,0,.234-.7.835.835,0,0,0-.205-.586,1.527,1.527,0,0,0-.535-.366,5.656,5.656,0,0,0-.715-.249l-.889-.254a3.3,3.3,0,0,1-1.35-.7,1.547,1.547,0,0,1-.5-1.194,1.775,1.775,0,0,1,.33-1.067,2.177,2.177,0,0,1,.894-.71,3.029,3.029,0,0,1,1.257-.254,2.961,2.961,0,0,1,1.25.251,2.21,2.21,0,0,1,.869.684,1.7,1.7,0,0,1,.342.979H49.99a1.112,1.112,0,0,0-.515-.835,1.984,1.984,0,0,0-1.116-.3,2.1,2.1,0,0,0-.84.156,1.331,1.331,0,0,0-.562.43,1.031,1.031,0,0,0-.2.625A.837.837,0,0,0,47,5.242a1.691,1.691,0,0,0,.569.369q.33.132.6.21l.732.205q.283.078.632.21a3.121,3.121,0,0,1,.674.356,1.842,1.842,0,0,1,.535.574,1.645,1.645,0,0,1,.21.862,1.915,1.915,0,0,1-.308,1.062,2.123,2.123,0,0,1-.894.757A3.28,3.28,0,0,1,48.32,10.127ZM54.268,10V2.725h4.365v.781H55.146V6.045H58.3v.781H55.146V10Zm8.335.1a3.061,3.061,0,0,1-1.655-.454A3.122,3.122,0,0,1,59.8,8.352a4.4,4.4,0,0,1-.417-1.985A4.429,4.429,0,0,1,59.8,4.375a3.119,3.119,0,0,1,1.145-1.294,3.244,3.244,0,0,1,3.311,0A3.115,3.115,0,0,1,65.4,4.375a4.451,4.451,0,0,1,.415,1.992A4.423,4.423,0,0,1,65.4,8.352a3.118,3.118,0,0,1-1.138,1.292A3.045,3.045,0,0,1,62.6,10.1Zm0-.82A2.205,2.205,0,0,0,63.8,8.943a2.314,2.314,0,0,0,.85-.984,3.627,3.627,0,0,0,.315-1.592,3.656,3.656,0,0,0-.315-1.6,2.312,2.312,0,0,0-.85-.986,2.3,2.3,0,0,0-2.39,0,2.321,2.321,0,0,0-.854.986,3.632,3.632,0,0,0-.317,1.6,3.6,3.6,0,0,0,.317,1.592,2.324,2.324,0,0,0,.854.984A2.217,2.217,0,0,0,62.6,9.277ZM66.816,10V2.725h2.461a2.96,2.96,0,0,1,1.4.291,1.88,1.88,0,0,1,.808.8,2.449,2.449,0,0,1,.264,1.15A2.413,2.413,0,0,1,71.487,6.1a1.821,1.821,0,0,1-.806.779,3.034,3.034,0,0,1-1.394.281H67.3V6.367h1.953A2.2,2.2,0,0,0,70.2,6.2a1.084,1.084,0,0,0,.518-.486,1.627,1.627,0,0,0,.161-.75,1.694,1.694,0,0,0-.164-.767,1.132,1.132,0,0,0-.52-.508,2.107,2.107,0,0,0-.947-.181H67.7V10Zm4.189,0L69.248,6.729h1L72.031,10ZM.947,14.725l2.158,6.123h.088l2.158-6.123H6.27L3.6,22H2.7L.02,14.725ZM6.934,22V14.725h4.395v.781H7.813v2.432h3.281v.781H7.813v2.5h3.564V22Zm8.467.1a3.145,3.145,0,0,1-1.7-.454,3.052,3.052,0,0,1-1.138-1.292,4.491,4.491,0,0,1-.408-1.985,4.519,4.519,0,0,1,.408-1.992,3.078,3.078,0,0,1,1.125-1.294,3.021,3.021,0,0,1,1.65-.454,3.288,3.288,0,0,1,1.074.171,2.851,2.851,0,0,1,1.541,1.24A2.94,2.94,0,0,1,18.32,17h-.908a2.666,2.666,0,0,0-.305-.647,1.99,1.99,0,0,0-.452-.488,1.97,1.97,0,0,0-.591-.31,2.306,2.306,0,0,0-.723-.107,2.155,2.155,0,0,0-1.174.334,2.324,2.324,0,0,0-.845.986,3.656,3.656,0,0,0-.315,1.6,3.6,3.6,0,0,0,.317,1.592,2.312,2.312,0,0,0,.859.984,2.268,2.268,0,0,0,1.216.334,2.189,2.189,0,0,0,1.1-.269,1.9,1.9,0,0,0,.742-.759,2.38,2.38,0,0,0,.269-1.16l.273.059H15.6v-.781h2.773v.781a3.073,3.073,0,0,1-.381,1.56,2.646,2.646,0,0,1-1.052,1.025A3.172,3.172,0,0,1,15.4,22.1Zm4-.1V14.725H23.8v.781H20.283v2.432h3.281v.781H20.283v2.5h3.564V22Zm5.107-6.494v-.781h5.459v.781H27.686V22h-.879V15.506ZM30.313,22h-.928l2.676-7.275h.908L35.635,22h-.918l-2.178-6.123H32.48Zm.342-2.842h3.721v.781H30.654ZM36.3,22V14.725H38.76a2.96,2.96,0,0,1,1.4.291,1.88,1.88,0,0,1,.808.8,2.449,2.449,0,0,1,.264,1.15,2.413,2.413,0,0,1-.261,1.138,1.821,1.821,0,0,1-.806.779,3.034,3.034,0,0,1-1.394.281H36.787v-.791H38.74a2.2,2.2,0,0,0,.942-.171,1.084,1.084,0,0,0,.518-.486,1.627,1.627,0,0,0,.161-.75,1.694,1.694,0,0,0-.164-.767,1.132,1.132,0,0,0-.52-.508,2.107,2.107,0,0,0-.947-.181H37.178V22Zm4.189,0L38.73,18.729h1L41.514,22Zm2.617-7.275V22h-.879V14.725ZM44.7,22H43.77l2.676-7.275h.908L50.02,22H49.1l-2.178-6.123h-.059Zm.342-2.842H48.76v.781H45.039Zm11.426-4.434V22H55.6l-3.955-5.713h-.078V22h-.879V14.725h.85l3.984,5.723h.068V14.725Zm3.594,7.4a3.338,3.338,0,0,1-1.353-.251,2.131,2.131,0,0,1-.9-.7,2.01,2.01,0,0,1-.369-1.047h.908a1.146,1.146,0,0,0,.281.679,1.465,1.465,0,0,0,.618.4,2.433,2.433,0,0,0,.811.132,2.358,2.358,0,0,0,.906-.166,1.533,1.533,0,0,0,.637-.464,1.1,1.1,0,0,0,.234-.7.835.835,0,0,0-.205-.586,1.527,1.527,0,0,0-.535-.366,5.656,5.656,0,0,0-.715-.249l-.889-.254a3.3,3.3,0,0,1-1.35-.7,1.547,1.547,0,0,1-.5-1.194,1.775,1.775,0,0,1,.33-1.067,2.177,2.177,0,0,1,.894-.71,3.029,3.029,0,0,1,1.257-.254,2.961,2.961,0,0,1,1.25.251,2.21,2.21,0,0,1,.869.684,1.7,1.7,0,0,1,.342.979h-.859a1.112,1.112,0,0,0-.515-.835,1.984,1.984,0,0,0-1.116-.3,2.1,2.1,0,0,0-.84.156,1.331,1.331,0,0,0-.562.43,1.031,1.031,0,0,0-.2.625.837.837,0,0,0,.239.623,1.691,1.691,0,0,0,.569.369q.33.132.6.21l.732.205q.283.078.632.21a3.121,3.121,0,0,1,.674.356,1.842,1.842,0,0,1,.535.574,1.645,1.645,0,0,1,.21.862,1.915,1.915,0,0,1-.308,1.062,2.123,2.123,0,0,1-.894.757A3.28,3.28,0,0,1,60.059,22.127ZM66.309,22h-.928l2.676-7.275h.908L71.631,22h-.918l-2.178-6.123h-.059Zm.342-2.842h3.721v.781H66.65Zm11.426-4.434V22h-.869l-3.955-5.713h-.078V22h-.879V14.725h.85l3.984,5.723H77.2V14.725ZM81.611,22H79.863v-.781h1.689a2.93,2.93,0,0,0,1.5-.347,2.145,2.145,0,0,0,.886-.991,4.146,4.146,0,0,0,0-3.049,2.142,2.142,0,0,0-.862-.981,2.734,2.734,0,0,0-1.428-.344H79.824v-.781h1.885a3.576,3.576,0,0,1,1.814.435,2.86,2.86,0,0,1,1.155,1.248,4.352,4.352,0,0,1,.4,1.941,4.363,4.363,0,0,1-.405,1.956,2.881,2.881,0,0,1-1.179,1.257A3.757,3.757,0,0,1,81.611,22Zm-1.367-7.275V22h-.879V14.725Zm8.486,0,2.158,6.123h.088l2.158-6.123h.918L91.387,22h-.908L87.8,14.725ZM94.717,22V14.725h4.395v.781H95.6v2.432h3.281v.781H95.6v2.5H99.16V22Zm8.467.1a3.145,3.145,0,0,1-1.7-.454,3.052,3.052,0,0,1-1.138-1.292,4.491,4.491,0,0,1-.408-1.985,4.519,4.519,0,0,1,.408-1.992,3.078,3.078,0,0,1,1.125-1.294,3.021,3.021,0,0,1,1.65-.454,3.288,3.288,0,0,1,1.074.171,2.851,2.851,0,0,1,1.541,1.24A2.94,2.94,0,0,1,106.1,17H105.2a2.666,2.666,0,0,0-.305-.647,1.99,1.99,0,0,0-.452-.488,1.97,1.97,0,0,0-.591-.31,2.306,2.306,0,0,0-.723-.107,2.155,2.155,0,0,0-1.174.334,2.324,2.324,0,0,0-.845.986,3.656,3.656,0,0,0-.315,1.6,3.6,3.6,0,0,0,.317,1.592,2.312,2.312,0,0,0,.859.984,2.268,2.268,0,0,0,1.216.334,2.189,2.189,0,0,0,1.1-.269,1.9,1.9,0,0,0,.742-.759,2.38,2.38,0,0,0,.269-1.16l.273.059h-2.187v-.781h2.773v.781a3.073,3.073,0,0,1-.381,1.56,2.646,2.646,0,0,1-1.052,1.025A3.172,3.172,0,0,1,103.184,22.1Zm4.082-.1h-.928l2.676-7.275h.908L112.588,22h-.918l-2.178-6.123h-.059Zm.342-2.842h3.721v.781h-3.721Zm11.426-4.434V22h-.869l-3.955-5.713h-.078V22h-.879V14.725h.85l3.984,5.723h.068V14.725Zm3.594,7.4a3.338,3.338,0,0,1-1.353-.251,2.131,2.131,0,0,1-.9-.7,2.01,2.01,0,0,1-.369-1.047h.908a1.146,1.146,0,0,0,.281.679,1.465,1.465,0,0,0,.618.4,2.433,2.433,0,0,0,.811.132,2.358,2.358,0,0,0,.906-.166,1.533,1.533,0,0,0,.637-.464,1.1,1.1,0,0,0,.234-.7.835.835,0,0,0-.205-.586,1.527,1.527,0,0,0-.535-.366,5.655,5.655,0,0,0-.715-.249l-.889-.254a3.3,3.3,0,0,1-1.35-.7,1.547,1.547,0,0,1-.5-1.194,1.775,1.775,0,0,1,.33-1.067,2.177,2.177,0,0,1,.894-.71,3.029,3.029,0,0,1,1.257-.254,2.961,2.961,0,0,1,1.25.251,2.21,2.21,0,0,1,.869.684,1.7,1.7,0,0,1,.342.979H124.3a1.112,1.112,0,0,0-.515-.835,1.984,1.984,0,0,0-1.116-.3,2.1,2.1,0,0,0-.84.156,1.331,1.331,0,0,0-.562.43,1.031,1.031,0,0,0-.2.625.837.837,0,0,0,.239.623,1.691,1.691,0,0,0,.569.369q.33.132.6.21l.732.205q.283.078.632.21a3.121,3.121,0,0,1,.674.356,1.842,1.842,0,0,1,.535.574,1.645,1.645,0,0,1,.21.862,1.915,1.915,0,0,1-.308,1.062,2.123,2.123,0,0,1-.894.757A3.28,3.28,0,0,1,122.627,22.127Z" transform="translate(-19398.434 -19912.422)" fill="#040404"/>
      <g id="Group_13377" data-name="Group 13377" transform="translate(-19441 -19919.42)">
        <g id="Group_11304" data-name="Group 11304" transform="translate(0 0)" clip-path="url(#clip-path)">
          <path id="Path_239" data-name="Path 239" d="M12.712,38.819a31.288,31.288,0,0,1-1.349-24.707l0-.009A24.728,24.728,0,0,0,2.541,7.536a24.575,24.575,0,0,0,10.91,32.79Z" transform="translate(0 -3.042)" fill="#5b697b"/>
          <path id="Path_240" data-name="Path 240" d="M37.947,21.882A27.861,27.861,0,0,1,22.964,37.876,27.893,27.893,0,0,1,36.749,0a27.857,27.857,0,0,1,1.2,21.882" transform="translate(-8.106 0)" fill="#c44a37"/>
        </g>
      </g>
    </g>
    <g id="Group_13380" data-name="Group 13380">
      <path id="Path_24935" data-name="Path 24935" d="M.947,0H.02L2.7-7.275H3.6L6.27,0H5.352L3.174-6.123H3.115Zm.342-2.842H5.01v.781H1.289ZM9.18,0H7.432V-.781H9.121a2.93,2.93,0,0,0,1.5-.347,2.145,2.145,0,0,0,.886-.991A3.681,3.681,0,0,0,11.8-3.652a3.657,3.657,0,0,0-.288-1.516,2.142,2.142,0,0,0-.862-.981,2.734,2.734,0,0,0-1.428-.344H7.393v-.781H9.277a3.576,3.576,0,0,1,1.814.435,2.86,2.86,0,0,1,1.155,1.248,4.352,4.352,0,0,1,.4,1.941A4.363,4.363,0,0,1,12.241-1.7,2.881,2.881,0,0,1,11.062-.439,3.757,3.757,0,0,1,9.18,0ZM7.813-7.275V0H6.934V-7.275ZM15.9,0H14.15V-.781H15.84a2.93,2.93,0,0,0,1.5-.347,2.145,2.145,0,0,0,.886-.991,3.681,3.681,0,0,0,.293-1.533,3.657,3.657,0,0,0-.288-1.516,2.142,2.142,0,0,0-.862-.981,2.734,2.734,0,0,0-1.428-.344H14.111v-.781H16a3.576,3.576,0,0,1,1.814.435,2.86,2.86,0,0,1,1.155,1.248,4.352,4.352,0,0,1,.4,1.941A4.363,4.363,0,0,1,18.96-1.7,2.881,2.881,0,0,1,17.781-.439,3.757,3.757,0,0,1,15.9,0ZM14.531-7.275V0h-.879V-7.275Zm6.719,0V0h-.879V-7.275Zm.889.781v-.781H27.6v.781H25.313V0h-.879V-6.494Zm7.227-.781V0h-.879V-7.275Zm1.592,0,2.158,6.123H33.2l2.158-6.123h.918L33.613,0h-.908L30.029-7.275ZM36.943,0V-7.275h4.395v.781H37.822v2.432H41.1v.781H37.822v2.5h3.564V0Zm7.852,0V-7.275H49.16v.781H45.674v2.539h3.154v.781H45.674V0Zm5.4,0V-7.275h2.461a2.96,2.96,0,0,1,1.4.291,1.88,1.88,0,0,1,.808.8,2.449,2.449,0,0,1,.264,1.15A2.413,2.413,0,0,1,54.866-3.9a1.821,1.821,0,0,1-.806.779,3.034,3.034,0,0,1-1.394.281H50.684v-.791h1.953a2.2,2.2,0,0,0,.942-.171A1.084,1.084,0,0,0,54.1-4.29a1.627,1.627,0,0,0,.161-.75,1.694,1.694,0,0,0-.164-.767,1.132,1.132,0,0,0-.52-.508,2.107,2.107,0,0,0-.947-.181H51.074V0Zm4.189,0L52.627-3.271h1L55.41,0Zm1.738,0V-7.275h4.395v.781H57v2.432h3.281v.781H57v2.5h3.564V0Zm5.508,0V-7.275h4.395v.781H62.51v2.432h3.281v.781H62.51v2.5h3.564V0Z" transform="translate(-19216.688 -19896.422)" fill="#040404"/>
      <g id="Group_13376" data-name="Group 13376" transform="translate(-19254.393 -19920.422)">
        <g id="Group_11307" data-name="Group 11307" transform="translate(0 0)" clip-path="url(#clip-path-2)">
          <path id="Path_241" data-name="Path 241" d="M6.37,22.07l5.189-5.189a6.4,6.4,0,0,0-.714-.845L6.372,11.563,1.887,16.048A6.365,6.365,0,0,0,3.5,26.254,13.5,13.5,0,0,1,6.37,22.07" transform="translate(0 -4.274)" fill="#c44a37"/>
          <path id="Path_242" data-name="Path 242" d="M35.3,3.067,32.232,0,29.158,3.073a4.371,4.371,0,1,0,6.14-.006" transform="translate(-10.299 0)" fill="#c44a37"/>
          <path id="Path_243" data-name="Path 243" d="M26.557,25.541l-8.292-8.292L9.972,25.541a11.794,11.794,0,1,0,16.586,0" transform="translate(-2.392 -6.376)" fill="#5b697b"/>
        </g>
      </g>
    </g>
    <g id="Group_13381" data-name="Group 13381" transform="translate(-327 46)">
      <path id="Path_24936" data-name="Path 24936" d="M.244,3.506V2.725H5.7v.781H3.418V10H2.539V3.506ZM6.592,10V2.725h.879V5.967h3.877V2.725h.879V10h-.879V6.748H7.471V10Zm6.924,0V2.725H17.91v.781H14.395V5.938h3.281v.781H14.395v2.5h3.564V10Zm7.852,0V2.725h4.365v.781H22.246V6.045H25.4v.781H22.246V10Zm5.4,0V2.725h2.461a2.96,2.96,0,0,1,1.4.291,1.88,1.88,0,0,1,.808.8,2.449,2.449,0,0,1,.264,1.15A2.413,2.413,0,0,1,31.438,6.1a1.821,1.821,0,0,1-.806.779,3.034,3.034,0,0,1-1.394.281H27.256V6.367h1.953a2.2,2.2,0,0,0,.942-.171,1.084,1.084,0,0,0,.518-.486,1.627,1.627,0,0,0,.161-.75,1.694,1.694,0,0,0-.164-.767,1.132,1.132,0,0,0-.52-.508,2.107,2.107,0,0,0-.947-.181H27.646V10Zm4.189,0L29.2,6.729h1L31.982,10ZM32.7,10V2.725H37.09v.781H33.574V5.938h3.281v.781H33.574v2.5h3.564V10Zm7.813.127a3.338,3.338,0,0,1-1.353-.251,2.131,2.131,0,0,1-.9-.7,2.01,2.01,0,0,1-.369-1.047H38.8a1.146,1.146,0,0,0,.281.679,1.465,1.465,0,0,0,.618.4,2.433,2.433,0,0,0,.811.132,2.358,2.358,0,0,0,.906-.166,1.533,1.533,0,0,0,.637-.464,1.1,1.1,0,0,0,.234-.7.835.835,0,0,0-.205-.586,1.527,1.527,0,0,0-.535-.366,5.656,5.656,0,0,0-.715-.249l-.889-.254a3.3,3.3,0,0,1-1.35-.7,1.547,1.547,0,0,1-.5-1.194,1.775,1.775,0,0,1,.33-1.067,2.177,2.177,0,0,1,.894-.71,3.029,3.029,0,0,1,1.257-.254,2.961,2.961,0,0,1,1.25.251,2.21,2.21,0,0,1,.869.684,1.7,1.7,0,0,1,.342.979h-.859a1.112,1.112,0,0,0-.515-.835,1.984,1.984,0,0,0-1.116-.3,2.1,2.1,0,0,0-.84.156,1.331,1.331,0,0,0-.562.43,1.031,1.031,0,0,0-.2.625.837.837,0,0,0,.239.623,1.691,1.691,0,0,0,.569.369q.33.132.6.21l.732.205q.283.078.632.21a3.121,3.121,0,0,1,.674.356,1.842,1.842,0,0,1,.535.574,1.645,1.645,0,0,1,.21.862,1.915,1.915,0,0,1-.308,1.062,2.123,2.123,0,0,1-.894.757A3.28,3.28,0,0,1,40.508,10.127Zm3.6-.127V2.725h.879V5.967h3.877V2.725h.879V10h-.879V6.748H44.99V10Zm9.268,0V2.725h4.365v.781H54.258V6.045h3.154v.781H54.258V10Zm5.4,0V2.725H61.24a2.96,2.96,0,0,1,1.4.291,1.88,1.88,0,0,1,.808.8,2.449,2.449,0,0,1,.264,1.15A2.413,2.413,0,0,1,63.45,6.1a1.821,1.821,0,0,1-.806.779,3.034,3.034,0,0,1-1.394.281H59.268V6.367h1.953a2.2,2.2,0,0,0,.942-.171,1.084,1.084,0,0,0,.518-.486,1.627,1.627,0,0,0,.161-.75,1.694,1.694,0,0,0-.164-.767,1.132,1.132,0,0,0-.52-.508,2.107,2.107,0,0,0-.947-.181H59.658V10Zm4.189,0L61.211,6.729h1L63.994,10Zm1.738,0V2.725H69.1v.781H65.586V5.938h3.281v.781H65.586v2.5H69.15V10Zm5.508,0V2.725h4.395v.781H71.094V5.938h3.281v.781H71.094v2.5h3.564V10Zm5.264,0V9.365L79.4,3.506H75.439V2.725h5.02v.645l-3.926,5.85H80.5V10ZM81.5,10V2.725H85.9v.781H82.383V5.938h3.281v.781H82.383v2.5h3.564V10ZM2.891,22H1.143v-.781H2.832a2.93,2.93,0,0,0,1.5-.347,2.145,2.145,0,0,0,.886-.991,3.681,3.681,0,0,0,.293-1.533,3.657,3.657,0,0,0-.288-1.516,2.142,2.142,0,0,0-.862-.981,2.734,2.734,0,0,0-1.428-.344H1.1v-.781H2.988a3.576,3.576,0,0,1,1.814.435,2.86,2.86,0,0,1,1.155,1.248,4.352,4.352,0,0,1,.4,1.941A4.363,4.363,0,0,1,5.952,20.3a2.881,2.881,0,0,1-1.179,1.257A3.757,3.757,0,0,1,2.891,22ZM1.523,14.725V22H.645V14.725ZM7.363,22V14.725H9.824a2.96,2.96,0,0,1,1.4.291,1.88,1.88,0,0,1,.808.8,2.449,2.449,0,0,1,.264,1.15,2.413,2.413,0,0,1-.261,1.138,1.821,1.821,0,0,1-.806.779,3.034,3.034,0,0,1-1.394.281H7.852v-.791H9.8a2.2,2.2,0,0,0,.942-.171,1.084,1.084,0,0,0,.518-.486,1.627,1.627,0,0,0,.161-.75,1.694,1.694,0,0,0-.164-.767,1.132,1.132,0,0,0-.52-.508,2.107,2.107,0,0,0-.947-.181H8.242V22Zm4.189,0L9.795,18.729h1L12.578,22Zm2.617-7.275V22h-.879V14.725ZM15.459,22V14.725h4.395v.781H16.338v2.432h3.281v.781H16.338v2.5H19.9V22Zm7.754,0H21.465v-.781h1.689a2.93,2.93,0,0,0,1.5-.347,2.145,2.145,0,0,0,.886-.991,4.146,4.146,0,0,0,0-3.049,2.142,2.142,0,0,0-.862-.981,2.734,2.734,0,0,0-1.428-.344H21.426v-.781h1.885a3.576,3.576,0,0,1,1.814.435,2.86,2.86,0,0,1,1.155,1.248,4.352,4.352,0,0,1,.4,1.941,4.363,4.363,0,0,1-.405,1.956A2.881,2.881,0,0,1,25.1,21.561,3.757,3.757,0,0,1,23.213,22Zm-1.367-7.275V22h-.879V14.725ZM30.332,22H29.4l2.676-7.275h.908L35.654,22h-.918l-2.178-6.123H32.5Zm.342-2.842h3.721v.781H30.674ZM38.564,22H36.816v-.781h1.689a2.93,2.93,0,0,0,1.5-.347,2.145,2.145,0,0,0,.886-.991,4.146,4.146,0,0,0,0-3.049,2.142,2.142,0,0,0-.862-.981,2.734,2.734,0,0,0-1.428-.344H36.777v-.781h1.885a3.576,3.576,0,0,1,1.814.435,2.86,2.86,0,0,1,1.155,1.248,4.352,4.352,0,0,1,.4,1.941,4.363,4.363,0,0,1-.405,1.956,2.881,2.881,0,0,1-1.179,1.257A3.757,3.757,0,0,1,38.564,22ZM37.2,14.725V22h-.879V14.725Zm5.806,0,2.158,6.123h.088l2.158-6.123h.918L45.659,22h-.908l-2.676-7.275ZM48.608,22h-.928l2.676-7.275h.908L53.931,22h-.918l-2.178-6.123h-.059Zm.342-2.842h3.721v.781H48.95Zm11.426-4.434V22h-.869l-3.955-5.713h-.078V22h-.879V14.725h.85l3.984,5.723H59.5V14.725Zm.889.781v-.781h5.459v.781H64.438V22H63.56V15.506ZM67.065,22h-.928l2.676-7.275h.908L72.388,22H71.47l-2.178-6.123h-.059Zm.342-2.842h3.721v.781H67.407ZM75.674,22.1a3.145,3.145,0,0,1-1.7-.454,3.052,3.052,0,0,1-1.138-1.292,4.491,4.491,0,0,1-.408-1.985,4.519,4.519,0,0,1,.408-1.992,3.078,3.078,0,0,1,1.125-1.294,3.021,3.021,0,0,1,1.65-.454,3.288,3.288,0,0,1,1.074.171,2.851,2.851,0,0,1,1.541,1.24,2.94,2.94,0,0,1,.364.962h-.908a2.666,2.666,0,0,0-.305-.647,1.99,1.99,0,0,0-.452-.488,1.97,1.97,0,0,0-.591-.31,2.306,2.306,0,0,0-.723-.107,2.155,2.155,0,0,0-1.174.334,2.324,2.324,0,0,0-.845.986,3.656,3.656,0,0,0-.315,1.6,3.6,3.6,0,0,0,.317,1.592,2.312,2.312,0,0,0,.859.984,2.268,2.268,0,0,0,1.216.334,2.189,2.189,0,0,0,1.1-.269,1.9,1.9,0,0,0,.742-.759,2.38,2.38,0,0,0,.269-1.16l.273.059H75.869v-.781h2.773v.781a3.073,3.073,0,0,1-.381,1.56,2.646,2.646,0,0,1-1.052,1.025A3.172,3.172,0,0,1,75.674,22.1Zm4-.1V14.725h4.395v.781H80.557v2.432h3.281v.781H80.557v2.5h3.564V22Z" transform="translate(-19055.703 -19912.422)" fill="#040404"/>
      <g id="Group_13375" data-name="Group 13375" transform="translate(-19126.297 -19915.422)">
        <g id="Group_11309" data-name="Group 11309" transform="translate(0 0)" clip-path="url(#clip-path-3)">
          <path id="Path_244" data-name="Path 244" d="M64.113,2.446l1.036,1.038L61.607,7.027V9.476h2.45L67.6,5.934l1.038,1.038L66.069,9.54h4.989A10.229,10.229,0,0,0,62.567,0L61.543,0V5.014Z" transform="translate(-30.565 0)" fill="#5b697b"/>
          <path id="Path_245" data-name="Path 245" d="M66.132,21.868,68.7,24.437l-1.038,1.036-3.605-3.605H61.67v2.386l3.607,3.606L64.24,28.9,61.67,26.33V40.443c2.124-3.217,8.607-13.381,9.393-18.575Z" transform="translate(-30.628 -10.861)" fill="#5b697b"/>
          <path id="Path_246" data-name="Path 246" d="M2.447,46.8l1.038-1.037L7.028,49.3H9.477v-2.45L5.933,43.312l1.038-1.038L9.54,44.842V39.853A10.233,10.233,0,0,0,0,48.345v1.023H5.014Z" transform="translate(0 -19.793)" fill="#5b697b"/>
          <path id="Path_247" data-name="Path 247" d="M21.871,44.9l2.567-2.569,1.036,1.038-3.6,3.608v2.384h2.385l3.607-3.605L28.9,46.794l-2.57,2.567H40.446c-3.217-2.123-13.381-8.605-18.575-9.393Z" transform="translate(-10.862 -19.851)" fill="#5b697b"/>
          <path id="Path_248" data-name="Path 248" d="M46.84,28.835,45.8,27.8l3.545-3.545V21.805H46.9l-3.542,3.542-1.038-1.036,2.567-2.57H39.937c.7,5.04,7.184,15.06,9.473,18.47V26.267Z" transform="translate(-19.835 -10.798)" fill="#c44a37"/>
          <path id="Path_249" data-name="Path 249" d="M42.276,6.91l1.036-1.038L46.92,9.477h2.385V7.093L45.7,3.486l1.038-1.038,2.568,2.569V0h-.959a10.231,10.231,0,0,0-8.491,9.473h4.987Z" transform="translate(-19.794 -0.002)" fill="#c44a37"/>
          <path id="Path_250" data-name="Path 250" d="M73.242,46.837,74.28,45.8l3.545,3.544h2.448v-2.45L76.73,43.351l1.038-1.038,2.57,2.568V39.934c-5.04.7-15.061,7.185-18.469,9.473H75.812Z" transform="translate(-30.727 -19.833)" fill="#c44a37"/>
          <path id="Path_251" data-name="Path 251" d="M104.043,42.274l1.039,1.038-3.607,3.607V49.3h2.386l3.606-3.608,1.037,1.038-2.567,2.57h5.013l0-.96a10.227,10.227,0,0,0-9.473-8.491v4.988Z" transform="translate(-50.398 -19.793)" fill="#c44a37"/>
        </g>
      </g>
    </g>
  </g>
</svg>
