<svg id="Group_3" data-name="Group 3" xmlns="http://www.w3.org/2000/svg" xmlns:xlink="http://www.w3.org/1999/xlink" width="512" height="512" viewBox="0 0 512 512">
  <defs>
    <clipPath id="clip-path">
      <rect id="Rectangle_3" data-name="Rectangle 3" width="512" height="512" fill="none"/>
    </clipPath>
  </defs>
  <rect id="Rectangle_1" data-name="Rectangle 1" width="512" height="512" fill="#fff"/>
  <rect id="Rectangle_2" data-name="Rectangle 2" width="501.841" height="501.821" transform="translate(5.075 5.094)" fill="#475668"/>
  <g id="Group_2" data-name="Group 2">
    <g id="Group_1" data-name="Group 1" clip-path="url(#clip-path)">
      <path id="Path_1" data-name="Path 1" d="M506.059,472.432V288.279l-8.561-3.107-11.01,3.107-70.252-24.863-2.962-7.775s-18.9-5.048-18.857-5.563c-2.9-.524-44.641-27.509-44.758-28.655-1-.886-34.7-13.421-34.7-13.421l-12.742-17.926s-19.128-3.36-19.164-3.251l-32.26-17.015-25.5-.9L195.4,202.628,152.645,235.05c-1.148.352-35.023,17-34.752,16.68-.208.046-9.673.028-9.673.028L70.5,265.467l-26.379,1.128-39.9,21.684V472.432Z" transform="translate(0.861 34.482)" fill="#a83a2e"/>
      <path id="Path_2" data-name="Path 2" d="M86.32,78.148V74.626h19.724v3.522H98.016v32.467H94.357V78.148Z" transform="translate(17.622 15.235)" fill="#fff"/>
      <path id="Path_3" data-name="Path 3" d="M86.32,78.148V74.626h19.724v3.522H98.016v32.467H94.357V78.148Z" transform="translate(17.622 15.235)" fill="none" stroke="#fff" stroke-miterlimit="10" stroke-width="0.84"/>
      <path id="Path_4" data-name="Path 4" d="M140.243,74.622h20.645v3.522H143.847V89.434h16.879v3.522H143.847V107.1h16.879v3.522H140.243Z" transform="translate(28.63 15.234)" fill="#fff"/>
      <path id="Path_5" data-name="Path 5" d="M140.243,74.622h20.645v3.522H143.847V89.434h16.879v3.522H143.847V107.1h16.879v3.522H140.243Z" transform="translate(28.63 15.234)" fill="none" stroke="#fff" stroke-miterlimit="10" stroke-width="0.84"/>
      <path id="Path_6" data-name="Path 6" d="M199.538,78.145V90.382l6.2.055a15.159,15.159,0,0,0,5.328-.7,5.559,5.559,0,0,0,2.7-2.186,6.167,6.167,0,0,0,.967-3.36,5.914,5.914,0,0,0-.993-3.3,5.45,5.45,0,0,0-2.556-2.123,16.3,16.3,0,0,0-5.3-.632Zm-3.612-3.523H203.1a44.332,44.332,0,0,1,8.12.489,9.564,9.564,0,0,1,5.228,3.161,8.875,8.875,0,0,1,2,5.934,9.432,9.432,0,0,1-1.391,5.156,8.387,8.387,0,0,1-3.965,3.385A18.552,18.552,0,0,1,206,93.932l12.959,16.689h-4.452L201.588,93.932h-2.049v16.689h-3.612Z" transform="translate(39.998 15.234)" fill="#fff"/>
      <path id="Path_7" data-name="Path 7" d="M199.538,78.145V90.382l6.2.055a15.159,15.159,0,0,0,5.328-.7,5.559,5.559,0,0,0,2.7-2.186,6.167,6.167,0,0,0,.967-3.36,5.914,5.914,0,0,0-.993-3.3,5.45,5.45,0,0,0-2.556-2.123,16.3,16.3,0,0,0-5.3-.632Zm-3.612-3.523H203.1a44.332,44.332,0,0,1,8.12.489,9.564,9.564,0,0,1,5.228,3.161,8.875,8.875,0,0,1,2,5.934,9.432,9.432,0,0,1-1.391,5.156,8.387,8.387,0,0,1-3.965,3.385A18.552,18.552,0,0,1,206,93.932l12.959,16.689h-4.452L201.588,93.932h-2.049v16.689h-3.612Z" transform="translate(39.998 15.234)" fill="none" stroke="#fff" stroke-miterlimit="10" stroke-width="0.84"/>
      <path id="Path_8" data-name="Path 8" d="M258,78.145V90.382l6.2.055a15.274,15.274,0,0,0,5.346-.7,5.5,5.5,0,0,0,2.691-2.186,6.238,6.238,0,0,0-.028-6.655,5.491,5.491,0,0,0-2.573-2.123,16.04,16.04,0,0,0-5.274-.632Zm-3.567-3.523h7.162a44.706,44.706,0,0,1,8.127.489,9.514,9.514,0,0,1,5.2,3.161,8.919,8.919,0,0,1,2,5.934,9.514,9.514,0,0,1-1.391,5.156,8.4,8.4,0,0,1-3.956,3.385,18.536,18.536,0,0,1-7.08,1.185l12.942,16.689h-4.434l-12.96-16.689H258v16.689h-3.567Z" transform="translate(51.942 15.234)" fill="#fff"/>
      <path id="Path_9" data-name="Path 9" d="M258,78.145V90.382l6.2.055a15.274,15.274,0,0,0,5.346-.7,5.5,5.5,0,0,0,2.691-2.186,6.238,6.238,0,0,0-.028-6.655,5.491,5.491,0,0,0-2.573-2.123,16.04,16.04,0,0,0-5.274-.632Zm-3.567-3.523h7.162a44.706,44.706,0,0,1,8.127.489,9.514,9.514,0,0,1,5.2,3.161,8.919,8.919,0,0,1,2,5.934,9.514,9.514,0,0,1-1.391,5.156,8.4,8.4,0,0,1-3.956,3.385,18.536,18.536,0,0,1-7.08,1.185l12.942,16.689h-4.434l-12.96-16.689H258v16.689h-3.567Z" transform="translate(51.942 15.234)" fill="none" stroke="#fff" stroke-miterlimit="10" stroke-width="0.84"/>
      <path id="Path_10" data-name="Path 10" d="M327.541,82.273l-6.169,13.041h12.31Zm.47-7.651,16.744,36h-3.875L335.236,98.8H319.692l-5.572,11.822h-4.028l17.023-36Z" transform="translate(63.305 15.234)" fill="#fff"/>
      <path id="Path_11" data-name="Path 11" d="M327.541,82.273l-6.169,13.041h12.31Zm.47-7.651,16.744,36h-3.875L335.236,98.8H319.692l-5.572,11.822h-4.028l17.023-36Z" transform="translate(63.305 15.234)" fill="none" stroke="#fff" stroke-miterlimit="10" stroke-width="0.84"/>
      <path id="Path_12" data-name="Path 12" d="M86.32,356.017V319.595H87.1l24.259,27.924V319.595h3.585v36.422h-.813L90.077,328.436v27.581Z" transform="translate(17.622 65.245)" fill="#fff"/>
      <path id="Path_13" data-name="Path 13" d="M86.32,356.017V319.595H87.1l24.259,27.924V319.595h3.585v36.422h-.813L90.077,328.436v27.581Z" transform="translate(17.622 65.245)" fill="none" stroke="#fff" stroke-miterlimit="10" stroke-width="0.84"/>
      <path id="Path_14" data-name="Path 14" d="M178.161,322.366a14.818,14.818,0,0,0-7.686,2.131,15.338,15.338,0,0,0-5.626,5.644,15.88,15.88,0,0,0-2.013,7.957,15.34,15.34,0,0,0,15.325,15.471,15.6,15.6,0,0,0,7.847-2.059,14.8,14.8,0,0,0,5.637-5.655,15.712,15.712,0,0,0,2.031-7.928,15.4,15.4,0,0,0-2.031-7.831,15.13,15.13,0,0,0-5.663-5.6,15.288,15.288,0,0,0-7.821-2.131m-.163-3.54a18.96,18.96,0,0,1,13.88,5.555,18.286,18.286,0,0,1,5.554,13.565,19.191,19.191,0,1,1-38.381.163,19.272,19.272,0,0,1,2.529-9.7,18.165,18.165,0,0,1,6.964-7.036A18.374,18.374,0,0,1,178,318.826" transform="translate(32.47 65.088)" fill="#fff"/>
      <path id="Path_15" data-name="Path 15" d="M178.161,322.366a14.818,14.818,0,0,0-7.686,2.131,15.338,15.338,0,0,0-5.626,5.644,15.88,15.88,0,0,0-2.013,7.957,15.34,15.34,0,0,0,15.325,15.471,15.6,15.6,0,0,0,7.847-2.059,14.8,14.8,0,0,0,5.637-5.655,15.712,15.712,0,0,0,2.031-7.928,15.4,15.4,0,0,0-2.031-7.831,15.13,15.13,0,0,0-5.663-5.6,15.288,15.288,0,0,0-7.821-2.131m-.163-3.54a18.96,18.96,0,0,1,13.88,5.555,18.286,18.286,0,0,1,5.554,13.565,19.191,19.191,0,1,1-38.381.163,19.272,19.272,0,0,1,2.529-9.7,18.165,18.165,0,0,1,6.964-7.036A18.374,18.374,0,0,1,178,318.826" transform="translate(32.47 65.088)" fill="none" stroke="#fff" stroke-miterlimit="10" stroke-width="0.84"/>
      <path id="Path_16" data-name="Path 16" d="M237.63,319.594h3.938l12.066,28.131,12.291-28.131h3.957l-15.86,36.422h-.8Z" transform="translate(48.512 65.244)" fill="#fff"/>
      <path id="Path_17" data-name="Path 17" d="M237.63,319.594h3.938l12.066,28.131,12.291-28.131h3.957l-15.86,36.422h-.8Z" transform="translate(48.512 65.244)" fill="none" stroke="#fff" stroke-miterlimit="10" stroke-width="0.84"/>
      <path id="Path_18" data-name="Path 18" d="M327.387,327.334l-6.25,13.176h12.445Zm.478-7.74,16.96,36.422h-3.91l-5.708-11.975H319.492L313.8,356.016h-4.046l17.194-36.422Z" transform="translate(63.236 65.244)" fill="#fff"/>
      <path id="Path_19" data-name="Path 19" d="M327.387,327.334l-6.25,13.176h12.445Zm.478-7.74,16.96,36.422h-3.91l-5.708-11.975H319.492L313.8,356.016h-4.046l17.194-36.422Z" transform="translate(63.236 65.244)" fill="none" stroke="#fff" stroke-miterlimit="10" stroke-width="0.84"/>
    </g>
  </g>
</svg>
