<svg xmlns="http://www.w3.org/2000/svg" width="220.019" height="144.257" viewBox="0 0 220.019 144.257">
  <g id="Group_13248" data-name="Group 13248" transform="translate(-10599.313 19104.999)">
    <path id="Path_24670" data-name="Path 24670" d="M168.832,410.087h3.326L167.544,444.2H166.8l-19.122-26.319L144.1,444.2h-3.386l4.614-34.116h.74l19.175,26.354Z" transform="translate(10460 -19501.51)" fill="#fff"/>
    <path id="Path_24671" data-name="Path 24671" d="M168.832,410.087h3.326L167.544,444.2H166.8l-19.122-26.319L144.1,444.2h-3.386l4.614-34.116h.74l19.175,26.354Z" transform="translate(10460 -19501.51)" fill="none" stroke="#fff" stroke-miterlimit="10" stroke-width="2.445"/>
    <path id="Path_24672" data-name="Path 24672" d="M216.089,435.582h-22.5a9.715,9.715,0,0,0,2.344,7.073,8.379,8.379,0,0,0,6.426,2.577,11.277,11.277,0,0,0,4.94-1.091,10.109,10.109,0,0,0,3.757-3.061l2.411,1.971a13.071,13.071,0,0,1-4.79,3.748,14.725,14.725,0,0,1-6.387,1.4q-5.941,0-8.92-3.676a12.787,12.787,0,0,1-2.978-8.269,14.267,14.267,0,0,1,2.006-7.236,14.476,14.476,0,0,1,12.65-7.351,10.708,10.708,0,0,1,8.027,3.281,11.527,11.527,0,0,1,3.177,8.362,19.5,19.5,0,0,1-.163,2.271m-2.969-2.829a8.111,8.111,0,0,0-2.437-5.769,7.99,7.99,0,0,0-5.772-2.21,10.951,10.951,0,0,0-6.668,2.127,11.4,11.4,0,0,0-4.1,5.852Z" transform="translate(10445.642 -19504.857)" fill="#fff"/>
    <path id="Path_24673" data-name="Path 24673" d="M216.089,435.582h-22.5a9.715,9.715,0,0,0,2.344,7.073,8.379,8.379,0,0,0,6.426,2.577,11.277,11.277,0,0,0,4.94-1.091,10.109,10.109,0,0,0,3.757-3.061l2.411,1.971a13.071,13.071,0,0,1-4.79,3.748,14.725,14.725,0,0,1-6.387,1.4q-5.941,0-8.92-3.676a12.787,12.787,0,0,1-2.978-8.269,14.267,14.267,0,0,1,2.006-7.236,14.476,14.476,0,0,1,12.65-7.351,10.708,10.708,0,0,1,8.027,3.281,11.527,11.527,0,0,1,3.177,8.362A19.5,19.5,0,0,1,216.089,435.582Zm-2.969-2.829a8.111,8.111,0,0,0-2.437-5.769,7.99,7.99,0,0,0-5.772-2.21,10.951,10.951,0,0,0-6.668,2.127,11.4,11.4,0,0,0-4.1,5.852Z" transform="translate(10445.642 -19504.857)" fill="none" stroke="#fff" stroke-miterlimit="10" stroke-width="2.445"/>
    <path id="Path_24674" data-name="Path 24674" d="M232.489,422.578h3.7l6.072,9.883,7.243-9.883h3.906l-9.369,12.782,7.654,12.453h-3.7l-5.964-9.708-7.118,9.708H231l9.241-12.606Z" transform="translate(10433.903 -19505.119)" fill="#fff"/>
    <path id="Path_24675" data-name="Path 24675" d="M232.489,422.578h3.7l6.072,9.883,7.243-9.883h3.906l-9.369,12.782,7.654,12.453h-3.7l-5.964-9.708-7.118,9.708H231l9.241-12.606Z" transform="translate(10433.903 -19505.119)" fill="none" stroke="#fff" stroke-miterlimit="10" stroke-width="2.445"/>
    <path id="Path_24676" data-name="Path 24676" d="M273.3,409.3h3.176l-1.259,9.44H280.3l-.373,2.832h-5.087l-2.985,22.4h-3.246l3.03-22.4h-4.328l.392-2.832h4.318Z" transform="translate(10423.41 -19501.283)" fill="#fff"/>
    <path id="Path_24677" data-name="Path 24677" d="M273.3,409.3h3.176l-1.259,9.44H280.3l-.373,2.832h-5.087l-2.985,22.4h-3.246l3.03-22.4h-4.328l.392-2.832h4.318Z" transform="translate(10423.41 -19501.283)" fill="none" stroke="#fff" stroke-miterlimit="10" stroke-width="2.445"/>
    <path id="Path_24678" data-name="Path 24678" d="M176.87,478.305l-2.736,2.018a18.008,18.008,0,0,0-6.04-5.16,15.034,15.034,0,0,0-14.947.392,16.179,16.179,0,0,0-5.9,5.823,15.021,15.021,0,0,0-2.146,7.781,12.937,12.937,0,0,0,4.025,9.59,13.447,13.447,0,0,0,9.8,3.954,16.107,16.107,0,0,0,6.633-1.416,14.024,14.024,0,0,0,5.15-3.756,14.617,14.617,0,0,0,2.877-5.8h-12.5V488.37h16.606a18.52,18.52,0,0,1-5.625,12.712,17.757,17.757,0,0,1-12.744,4.869q-7.841,0-12.734-4.755a15.954,15.954,0,0,1-4.892-11.943,19.029,19.029,0,0,1,9.659-16.573,19.394,19.394,0,0,1,9.73-2.561q9.438,0,15.792,8.186" transform="translate(10459.718 -19518.859)" fill="#fff"/>
    <path id="Path_24679" data-name="Path 24679" d="M176.87,478.305l-2.736,2.018a18.008,18.008,0,0,0-6.04-5.16,15.034,15.034,0,0,0-14.947.392,16.179,16.179,0,0,0-5.9,5.823,15.021,15.021,0,0,0-2.146,7.781,12.937,12.937,0,0,0,4.025,9.59,13.447,13.447,0,0,0,9.8,3.954,16.107,16.107,0,0,0,6.633-1.416,14.024,14.024,0,0,0,5.15-3.756,14.617,14.617,0,0,0,2.877-5.8h-12.5V488.37h16.606a18.52,18.52,0,0,1-5.625,12.712,17.757,17.757,0,0,1-12.744,4.869q-7.841,0-12.734-4.755a15.954,15.954,0,0,1-4.892-11.943,19.029,19.029,0,0,1,9.659-16.573,19.394,19.394,0,0,1,9.73-2.561Q170.516,470.119,176.87,478.305Z" transform="translate(10459.718 -19518.859)" fill="none" stroke="#fff" stroke-miterlimit="10" stroke-width="2.445"/>
    <path id="Path_24680" data-name="Path 24680" d="M224.93,496.821h-22.5a9.715,9.715,0,0,0,2.344,7.073,8.379,8.379,0,0,0,6.426,2.577,11.277,11.277,0,0,0,4.94-1.091,10.11,10.11,0,0,0,3.757-3.061l2.411,1.971a13.072,13.072,0,0,1-4.79,3.748,14.726,14.726,0,0,1-6.387,1.4q-5.941,0-8.92-3.676a12.787,12.787,0,0,1-2.978-8.269,14.269,14.269,0,0,1,2.006-7.236,14.476,14.476,0,0,1,12.65-7.351,10.708,10.708,0,0,1,8.027,3.281,11.527,11.527,0,0,1,3.177,8.362,19.5,19.5,0,0,1-.163,2.271m-2.969-2.829a8.111,8.111,0,0,0-2.437-5.769,7.989,7.989,0,0,0-5.772-2.21,10.951,10.951,0,0,0-6.668,2.127,11.4,11.4,0,0,0-4.1,5.852Z" transform="translate(10443.086 -19522.557)" fill="#fff"/>
    <path id="Path_24681" data-name="Path 24681" d="M224.93,496.821h-22.5a9.715,9.715,0,0,0,2.344,7.073,8.379,8.379,0,0,0,6.426,2.577,11.277,11.277,0,0,0,4.94-1.091,10.11,10.11,0,0,0,3.757-3.061l2.411,1.971a13.072,13.072,0,0,1-4.79,3.748,14.726,14.726,0,0,1-6.387,1.4q-5.941,0-8.92-3.676a12.787,12.787,0,0,1-2.978-8.269,14.269,14.269,0,0,1,2.006-7.236,14.476,14.476,0,0,1,12.65-7.351,10.708,10.708,0,0,1,8.027,3.281,11.527,11.527,0,0,1,3.177,8.362A19.5,19.5,0,0,1,224.93,496.821Zm-2.969-2.829a8.111,8.111,0,0,0-2.437-5.769,7.989,7.989,0,0,0-5.772-2.21,10.951,10.951,0,0,0-6.668,2.127,11.4,11.4,0,0,0-4.1,5.852Z" transform="translate(10443.086 -19522.557)" fill="none" stroke="#fff" stroke-miterlimit="10" stroke-width="2.445"/>
    <path id="Path_24682" data-name="Path 24682" d="M245.507,483.555h3.113l-.52,3.925q3.85-4.572,8.955-4.573a8.557,8.557,0,0,1,6.321,2.4,8.727,8.727,0,0,1,2.4,6.457,46.46,46.46,0,0,1-.52,5.453l-1.563,11.573h-3.182l1.563-11.573a45.449,45.449,0,0,0,.5-5.478,5.828,5.828,0,0,0-1.607-4.28,5.653,5.653,0,0,0-4.216-1.63,9.295,9.295,0,0,0-8.173,4.905,22.242,22.242,0,0,0-1.859,7.152l-1.445,10.9h-3.182Z" transform="translate(10430.698 -19522.557)" fill="#fff"/>
    <path id="Path_24683" data-name="Path 24683" d="M245.507,483.555h3.113l-.52,3.925q3.85-4.572,8.955-4.573a8.557,8.557,0,0,1,6.321,2.4,8.727,8.727,0,0,1,2.4,6.457,46.46,46.46,0,0,1-.52,5.453l-1.563,11.573h-3.182l1.563-11.573a45.449,45.449,0,0,0,.5-5.478,5.828,5.828,0,0,0-1.607-4.28,5.653,5.653,0,0,0-4.216-1.63,9.295,9.295,0,0,0-8.173,4.905,22.242,22.242,0,0,0-1.859,7.152l-1.445,10.9h-3.182Z" transform="translate(10430.698 -19522.557)" fill="none" stroke="#fff" stroke-miterlimit="10" stroke-width="2.445"/>
    <path id="Path_24684" data-name="Path 24684" d="M303.164,394.039a3.048,3.048,0,1,1-3.049-3.048,3.048,3.048,0,0,1,3.049,3.048" transform="translate(10414.81 -19495.99)" fill="#b73528"/>
    <path id="Path_24685" data-name="Path 24685" d="M320.909,394.039a3.048,3.048,0,1,1-3.048-3.048,3.048,3.048,0,0,1,3.048,3.048" transform="translate(10409.681 -19495.99)" fill="#b73528"/>
    <path id="Path_24686" data-name="Path 24686" d="M338.711,394.039a3.048,3.048,0,1,1-3.048-3.048,3.048,3.048,0,0,1,3.048,3.048" transform="translate(10404.535 -19495.99)" fill="#b73528"/>
    <path id="Path_24687" data-name="Path 24687" d="M356.483,394.039a3.048,3.048,0,1,1-3.048-3.048,3.048,3.048,0,0,1,3.048,3.048" transform="translate(10399.399 -19495.99)" fill="#b73528"/>
    <path id="Path_24688" data-name="Path 24688" d="M374.441,394.039a3.048,3.048,0,1,1-3.048-3.048,3.048,3.048,0,0,1,3.048,3.048" transform="translate(10394.209 -19495.99)" fill="#b73528"/>
    <path id="Path_24689" data-name="Path 24689" d="M320.909,411.895a3.048,3.048,0,1,1-3.048-3.048,3.048,3.048,0,0,1,3.048,3.048" transform="translate(10409.681 -19501.15)" fill="#b73528"/>
    <path id="Path_24690" data-name="Path 24690" d="M338.711,411.895a3.048,3.048,0,1,1-3.048-3.048,3.048,3.048,0,0,1,3.048,3.048" transform="translate(10404.535 -19501.15)" fill="#b73528"/>
    <path id="Path_24691" data-name="Path 24691" d="M356.483,411.895a3.048,3.048,0,1,1-3.048-3.048,3.048,3.048,0,0,1,3.048,3.048" transform="translate(10399.399 -19501.15)" fill="#b73528"/>
    <path id="Path_24692" data-name="Path 24692" d="M374.441,411.895a3.048,3.048,0,1,1-3.048-3.048,3.048,3.048,0,0,1,3.048,3.048" transform="translate(10394.209 -19501.15)" fill="#b73528"/>
    <path id="Path_24693" data-name="Path 24693" d="M338.711,429.719a3.048,3.048,0,1,1-3.048-3.048,3.048,3.048,0,0,1,3.048,3.048" transform="translate(10404.535 -19506.303)" fill="#b73528"/>
    <path id="Path_24694" data-name="Path 24694" d="M356.483,429.719a3.048,3.048,0,1,1-3.048-3.048,3.048,3.048,0,0,1,3.048,3.048" transform="translate(10399.399 -19506.303)" fill="#b73528"/>
    <path id="Path_24695" data-name="Path 24695" d="M374.441,429.719a3.048,3.048,0,1,1-3.048-3.048,3.048,3.048,0,0,1,3.048,3.048" transform="translate(10394.209 -19506.303)" fill="#b73528"/>
    <path id="Path_24696" data-name="Path 24696" d="M356.483,447.482a3.048,3.048,0,1,1-3.048-3.048,3.048,3.048,0,0,1,3.048,3.048" transform="translate(10399.399 -19511.436)" fill="#b73528"/>
    <path id="Path_24697" data-name="Path 24697" d="M374.441,447.482a3.048,3.048,0,1,1-3.048-3.048,3.048,3.048,0,0,1,3.048,3.048" transform="translate(10394.209 -19511.436)" fill="#b73528"/>
    <path id="Path_24698" data-name="Path 24698" d="M374.441,465.347a3.048,3.048,0,1,1-3.048-3.048,3.048,3.048,0,0,1,3.048,3.048" transform="translate(10394.209 -19516.6)" fill="#b73528"/>
    <path id="Path_24699" data-name="Path 24699" d="M392.281,411.895a3.048,3.048,0,1,1-3.048-3.048,3.048,3.048,0,0,1,3.048,3.048" transform="translate(10389.053 -19501.15)" fill="#b73528"/>
    <path id="Path_24700" data-name="Path 24700" d="M392.281,429.719a3.048,3.048,0,1,1-3.048-3.048,3.048,3.048,0,0,1,3.048,3.048" transform="translate(10389.053 -19506.303)" fill="#b73528"/>
    <path id="Path_24701" data-name="Path 24701" d="M392.281,447.482a3.048,3.048,0,1,1-3.048-3.048,3.048,3.048,0,0,1,3.048,3.048" transform="translate(10389.053 -19511.436)" fill="#b73528"/>
    <path id="Path_24702" data-name="Path 24702" d="M392.281,465.347a3.048,3.048,0,1,1-3.048-3.048,3.048,3.048,0,0,1,3.048,3.048" transform="translate(10389.053 -19516.6)" fill="#b73528"/>
    <path id="Path_24703" data-name="Path 24703" d="M410.095,429.719a3.048,3.048,0,1,1-3.048-3.048,3.048,3.048,0,0,1,3.048,3.048" transform="translate(10383.904 -19506.303)" fill="#b73528"/>
    <path id="Path_24704" data-name="Path 24704" d="M410.095,447.482a3.048,3.048,0,1,1-3.048-3.048,3.048,3.048,0,0,1,3.048,3.048" transform="translate(10383.904 -19511.436)" fill="#b73528"/>
    <path id="Path_24705" data-name="Path 24705" d="M410.095,465.347a3.048,3.048,0,1,1-3.048-3.048,3.048,3.048,0,0,1,3.048,3.048" transform="translate(10383.904 -19516.6)" fill="#b73528"/>
    <path id="Path_24706" data-name="Path 24706" d="M427.909,447.482a3.048,3.048,0,1,1-3.048-3.048,3.048,3.048,0,0,1,3.048,3.048" transform="translate(10378.756 -19511.436)" fill="#b73528"/>
    <path id="Path_24707" data-name="Path 24707" d="M427.909,465.347a3.048,3.048,0,1,1-3.048-3.048,3.048,3.048,0,0,1,3.048,3.048" transform="translate(10378.756 -19516.6)" fill="#b73528"/>
    <path id="Path_24708" data-name="Path 24708" d="M374.441,483.187a3.048,3.048,0,1,1-3.048-3.048,3.048,3.048,0,0,1,3.048,3.048" transform="translate(10394.209 -19521.756)" fill="#b73528"/>
    <path id="Path_24709" data-name="Path 24709" d="M356.6,483.187a3.048,3.048,0,1,1-3.048-3.048,3.048,3.048,0,0,1,3.048,3.048" transform="translate(10399.365 -19521.756)" fill="#b73528"/>
    <path id="Path_24710" data-name="Path 24710" d="M392.281,483.187a3.048,3.048,0,1,1-3.048-3.048,3.048,3.048,0,0,1,3.048,3.048" transform="translate(10389.053 -19521.756)" fill="#b73528"/>
    <path id="Path_24711" data-name="Path 24711" d="M410.095,483.187a3.048,3.048,0,1,1-3.048-3.048,3.048,3.048,0,0,1,3.048,3.048" transform="translate(10383.904 -19521.756)" fill="#b73528"/>
    <path id="Path_24712" data-name="Path 24712" d="M374.441,501.027a3.048,3.048,0,1,1-3.048-3.048,3.048,3.048,0,0,1,3.048,3.048" transform="translate(10394.209 -19526.912)" fill="#b73528"/>
    <path id="Path_24713" data-name="Path 24713" d="M392.281,501.027a3.048,3.048,0,1,1-3.048-3.048,3.048,3.048,0,0,1,3.048,3.048" transform="translate(10389.053 -19526.912)" fill="#b73528"/>
    <path id="Path_24714" data-name="Path 24714" d="M338.761,501.027a3.048,3.048,0,1,1-3.048-3.048,3.048,3.048,0,0,1,3.048,3.048" transform="translate(10404.521 -19526.912)" fill="#b73528"/>
    <path id="Path_24715" data-name="Path 24715" d="M356.6,501.027a3.048,3.048,0,1,1-3.048-3.048,3.048,3.048,0,0,1,3.048,3.048" transform="translate(10399.365 -19526.912)" fill="#b73528"/>
    <path id="Path_24716" data-name="Path 24716" d="M374.441,518.79a3.048,3.048,0,1,1-3.048-3.048,3.048,3.048,0,0,1,3.048,3.048" transform="translate(10394.209 -19532.045)" fill="#b73528"/>
    <path id="Path_24717" data-name="Path 24717" d="M392.281,518.79a3.048,3.048,0,1,1-3.048-3.048,3.048,3.048,0,0,1,3.048,3.048" transform="translate(10389.053 -19532.045)" fill="#b73528"/>
    <path id="Path_24718" data-name="Path 24718" d="M338.761,518.79a3.048,3.048,0,1,1-3.048-3.048,3.048,3.048,0,0,1,3.048,3.048" transform="translate(10404.521 -19532.045)" fill="#b73528"/>
    <path id="Path_24719" data-name="Path 24719" d="M320.96,518.79a3.048,3.048,0,1,1-3.048-3.048,3.048,3.048,0,0,1,3.048,3.048" transform="translate(10409.666 -19532.045)" fill="#b73528"/>
    <path id="Path_24720" data-name="Path 24720" d="M356.6,518.79a3.048,3.048,0,1,1-3.048-3.048,3.048,3.048,0,0,1,3.048,3.048" transform="translate(10399.365 -19532.045)" fill="#b73528"/>
    <path id="Path_24721" data-name="Path 24721" d="M374.441,536.63a3.048,3.048,0,1,1-3.048-3.048,3.048,3.048,0,0,1,3.048,3.048" transform="translate(10394.209 -19537.201)" fill="#b73528"/>
    <path id="Path_24722" data-name="Path 24722" d="M338.761,536.63a3.048,3.048,0,1,1-3.048-3.048,3.048,3.048,0,0,1,3.048,3.048" transform="translate(10404.521 -19537.201)" fill="#b73528"/>
    <path id="Path_24723" data-name="Path 24723" d="M356.6,536.63a3.048,3.048,0,1,1-3.048-3.048,3.048,3.048,0,0,1,3.048,3.048" transform="translate(10399.365 -19537.201)" fill="#b73528"/>
    <path id="Path_24724" data-name="Path 24724" d="M303.043,536.63a3.048,3.048,0,1,1-3.048-3.048,3.048,3.048,0,0,1,3.048,3.048" transform="translate(10414.845 -19537.201)" fill="#b73528"/>
    <path id="Path_24725" data-name="Path 24725" d="M320.883,536.63a3.048,3.048,0,1,1-3.048-3.048,3.048,3.048,0,0,1,3.048,3.048" transform="translate(10409.688 -19537.201)" fill="#b73528"/>
    <path id="Path_24726" data-name="Path 24726" d="M410.095,501.027a3.048,3.048,0,1,1-3.048-3.048,3.048,3.048,0,0,1,3.048,3.048" transform="translate(10383.904 -19526.912)" fill="#b73528"/>
    <path id="Path_24727" data-name="Path 24727" d="M427.909,483.187a3.048,3.048,0,1,1-3.048-3.048,3.048,3.048,0,0,1,3.048,3.048" transform="translate(10378.756 -19521.756)" fill="#b73528"/>
    <path id="Path_24728" data-name="Path 24728" d="M445.724,465.347a3.048,3.048,0,1,1-3.048-3.048,3.048,3.048,0,0,1,3.048,3.048" transform="translate(10373.607 -19516.6)" fill="#b73528"/>
    <path id="Path_24729" data-name="Path 24729" d="M299.842,568.461a5.225,5.225,0,0,0-1.784,1.453l.25-1.638h-1.85l-1.942,13.018h1.811l.84-5.514a13.886,13.886,0,0,1,.993-3.836,4.427,4.427,0,0,1,1.528-1.777,3.059,3.059,0,0,1,3.049-.359l.871-1.531a4.406,4.406,0,0,0-1.625-.335,4.741,4.741,0,0,0-2.14.52m7.024,10.368a4.279,4.279,0,0,1-1.406-3.338,5.571,5.571,0,0,1,1.88-4.259,6.428,6.428,0,0,1,4.522-1.735,5.252,5.252,0,0,1,3.654,1.267,4.218,4.218,0,0,1,1.406,3.287,5.93,5.93,0,0,1-.854,3.1,5.757,5.757,0,0,1-2.314,2.186,6.889,6.889,0,0,1-3.234.76,5.246,5.246,0,0,1-3.654-1.268m-.778-8.656a6.984,6.984,0,0,0-2.449,5.342,5.686,5.686,0,0,0,1.879,4.4,6.847,6.847,0,0,0,4.8,1.711,8.164,8.164,0,0,0,5.694-2.293l-.284,1.957h1.861l1.942-13.018h-1.915l-.332,2.472A5.8,5.8,0,0,0,315,568.621a6.926,6.926,0,0,0-3.15-.68,8.285,8.285,0,0,0-5.766,2.232m19.174.129.3-2.026h-1.771l-1.942,13.018h1.811l.822-5.625a10.623,10.623,0,0,1,1.057-3.689,4.949,4.949,0,0,1,1.942-1.849,5.576,5.576,0,0,1,2.709-.683,3.405,3.405,0,0,1,2.4.84,2.858,2.858,0,0,1,.914,2.208,21.221,21.221,0,0,1-.287,2.827l-.889,5.97h1.81l.89-5.971a21.909,21.909,0,0,0,.3-2.813,4.272,4.272,0,0,0-1.366-3.332,5.147,5.147,0,0,0-3.595-1.238,6.754,6.754,0,0,0-5.095,2.36m16.482,8.229a3.9,3.9,0,0,1-1.342-3.088,5.494,5.494,0,0,1,.849-3,5.939,5.939,0,0,1,2.4-2.124,7.306,7.306,0,0,1,3.351-.784,5.2,5.2,0,0,1,3.239,1.131,3.915,3.915,0,0,1,1.475,3.308,5.28,5.28,0,0,1-1.81,4.1,6.55,6.55,0,0,1-4.55,1.627,5.29,5.29,0,0,1-3.608-1.172m.966-9.548a8.1,8.1,0,0,0-3.029,2.746,6.607,6.607,0,0,0-1.1,3.644,5.512,5.512,0,0,0,1.807,4.277,6.82,6.82,0,0,0,4.776,1.645,7.771,7.771,0,0,0,5.679-2.3l-.077.507a11.154,11.154,0,0,1-.726,2.86,4.411,4.411,0,0,1-1.971,1.783,7.187,7.187,0,0,1-3.264.694q-3.575,0-5.078-2.477l-1.649.538a6,6,0,0,0,2.592,2.6,8.809,8.809,0,0,0,4.136.9,9.1,9.1,0,0,0,4.273-.945,5.876,5.876,0,0,0,2.585-2.417,12.67,12.67,0,0,0,.963-3.734l1.644-11.019h-1.8l-.375,2.476a6.409,6.409,0,0,0-5.465-2.811,8.17,8.17,0,0,0-3.919,1.041m18.5,1.66a6.673,6.673,0,0,1,3.794-1.1,4.817,4.817,0,0,1,3.285,1.14,4.006,4.006,0,0,1,1.386,2.976H358.878a5.925,5.925,0,0,1,2.328-3.018m-.269-1.7a7.866,7.866,0,0,0-3.055,2.794,6.861,6.861,0,0,0-1.142,3.733,6.232,6.232,0,0,0,1.7,4.265,6.456,6.456,0,0,0,5.074,1.9,9.1,9.1,0,0,0,3.635-.724,7.383,7.383,0,0,0,2.724-1.932l-1.372-1.017a5.656,5.656,0,0,1-2.138,1.579,6.976,6.976,0,0,1-2.81.562,5.033,5.033,0,0,1-3.654-1.327,4.724,4.724,0,0,1-1.333-3.649h12.8a9.216,9.216,0,0,0,.092-1.173,5.654,5.654,0,0,0-1.807-4.313,6.419,6.419,0,0,0-4.566-1.693,8.813,8.813,0,0,0-4.143,1" transform="translate(10415.548 -19547.133)" fill="#fff"/>
  </g>
</svg>
