<svg xmlns="http://www.w3.org/2000/svg" width="114" height="114" viewBox="0 0 114 114">
  <g id="Group_11554" data-name="Group 11554" transform="translate(-271 -5323)">
    <circle id="Ellipse_2" data-name="Ellipse 2" cx="57" cy="57" r="57" transform="translate(271 5323)" fill="#f1f1f1"/>
    <g id="Group_11538" data-name="Group 11538" transform="translate(-132.153 1282.5)">
      <path id="Path_8" data-name="Path 8" d="M404.979,127.771a.883.883,0,0,0-1.2-.352l-8.675,4.735-.2-8.307,3.746,2.163a.883.883,0,0,0,1.193-.3l.057.025.057-.113-.047-.027a33.014,33.014,0,0,0-12.125-45.079.883.883,0,0,0-.883,1.53,31.274,31.274,0,0,1,11.884,41.936l-.027.049-4.334-2.5a.9.9,0,0,0-.893.005.884.884,0,0,0-.432.781l.272,11.329a.886.886,0,0,0,1.306.754l9.947-5.429a.884.884,0,0,0,.352-1.2" transform="translate(88.76 3989.31)" fill="#040404"/>
      <path id="Path_9" data-name="Path 9" d="M49.939,380.308a.882.882,0,0,0-.441.119,31.94,31.94,0,0,1-3.316,1.665,31.463,31.463,0,0,1-27.947-1.665.836.836,0,0,0-.152-.069l-.016-.007a31.246,31.246,0,0,1-10.829-10.6l-.029-.047,4.334-2.5a.884.884,0,0,0-.018-1.541l-9.947-5.429a.912.912,0,0,0-.865.01.888.888,0,0,0-.441.744L0,372.314a.883.883,0,0,0,.863.9h.02a.888.888,0,0,0,.883-.862L2,362.476,9.3,366.457,5.551,368.62a.883.883,0,0,0-.323,1.207l.017.029a32.921,32.921,0,0,0,17.535,14.615c.895.32,1.811.6,2.725.844a32.892,32.892,0,0,0,6.106,1c.753.052,1.514.078,2.262.078a33.26,33.26,0,0,0,4.074-.253,32.781,32.781,0,0,0,8.5-2.242,33.12,33.12,0,0,0,3.632-1.757.831.831,0,0,0,.111-.074l.189-.109a.884.884,0,0,0,.323-1.207.886.886,0,0,0-.766-.442" transform="translate(426.154 3745.097)" fill="#040404"/>
      <path id="Path_10" data-name="Path 10" d="M7.4,39.824a.885.885,0,0,0,.884-.884A31.31,31.31,0,0,1,38.656,7.68l.056,0v5a.885.885,0,0,0,.451.77.913.913,0,0,0,.893-.016l9.675-5.9a.883.883,0,0,0,0-1.509L40.055.129a.884.884,0,1,0-.92,1.509l8.438,5.145-7.094,4.326V6.783a.885.885,0,0,0-.885-.883h-.034A33.013,33.013,0,0,0,6.513,38.94a.885.885,0,0,0,.884.884" transform="translate(420.467 4059.5)" fill="#040404"/>
      <path id="Path_11" data-name="Path 11" d="M165.613,150.108a.883.883,0,0,0-1.2-.01,65.607,65.607,0,0,0-6.949,7.6,45.158,45.158,0,0,0-4.86,7.532,20.436,20.436,0,0,0-2.385,8.414,13.931,13.931,0,0,0,1.021,5.648,14.374,14.374,0,0,0,3.044,4.642,14.972,14.972,0,0,0,10.726,4.524,14.779,14.779,0,0,0,14.79-14.79,18.68,18.68,0,0,0-2.267-8.149,46.646,46.646,0,0,0-4.873-7.561,73.112,73.112,0,0,0-7.05-7.853M165,151.975l.038.037a74.11,74.11,0,0,1,6.227,7.03c4.429,5.723,6.77,10.781,6.77,14.629a13.038,13.038,0,0,1-13.023,13.023,13.272,13.272,0,0,1-9.459-3.99,12.359,12.359,0,0,1-3.564-9.01c.111-4.129,2.481-9.275,6.854-14.883a67.292,67.292,0,0,1,6.12-6.8Z" transform="translate(295.01 3928.659)" fill="#040404"/>
      <path id="Path_12" data-name="Path 12" d="M195.5,334.75a7.014,7.014,0,0,1-.649-2.377c-.02-.214-.03-.433-.03-.652a.883.883,0,1,0-1.767,0c0,.272.012.546.037.813a8.854,8.854,0,0,0,8.82,8.043.884.884,0,0,0,0-1.767,7.126,7.126,0,0,1-6.411-4.059" transform="translate(257.612 3770.668)" fill="#040404"/>
    </g>
  </g>
</svg>
