<svg xmlns="http://www.w3.org/2000/svg" width="114" height="114" viewBox="0 0 114 114">
  <g id="Group_11556" data-name="Group 11556" transform="translate(-984 -5323)">
    <circle id="Ellipse_7" data-name="Ellipse 7" cx="57" cy="57" r="57" transform="translate(984 5323)" fill="#f1f1f1"/>
    <g id="Group_11546" data-name="Group 11546" transform="translate(-81 -310)">
      <g id="Group_11540" data-name="Group 11540" transform="translate(0.099 1587.867)">
        <path id="Path_20" data-name="Path 20" d="M142.342,349.154h-.563a1.338,1.338,0,0,0,0,2.676h.563a1.338,1.338,0,0,0,0-2.676" transform="translate(964.274 3772.239)" fill="#040404"/>
        <path id="Path_21" data-name="Path 21" d="M186.232,349.154h-.563a1.338,1.338,0,0,0,0,2.676h.563a1.338,1.338,0,0,0,0-2.676" transform="translate(926.576 3772.239)" fill="#040404"/>
        <path id="Path_22" data-name="Path 22" d="M230.122,349.154h-.563a1.338,1.338,0,0,0,0,2.676h.563a1.338,1.338,0,0,0,0-2.676" transform="translate(888.878 3772.239)" fill="#040404"/>
        <path id="Path_23" data-name="Path 23" d="M98.453,349.154H97.89a1.338,1.338,0,0,0,0,2.676h.563a1.338,1.338,0,0,0,0-2.676" transform="translate(1001.971 3772.239)" fill="#040404"/>
        <path id="Path_24" data-name="Path 24" d="M54.564,349.154H54a1.338,1.338,0,0,0,0,2.676h.563a1.338,1.338,0,0,0,0-2.676" transform="translate(1039.668 3772.239)" fill="#040404"/>
        <path id="Path_25" data-name="Path 25" d="M10.674,349.154h-.563a1.338,1.338,0,0,0,0,2.676h.563a1.338,1.338,0,0,0,0-2.676" transform="translate(1077.366 3772.239)" fill="#040404"/>
        <path id="Path_26" data-name="Path 26" d="M405.679,349.154h-.563a1.338,1.338,0,0,0,0,2.676h.563a1.338,1.338,0,0,0,0-2.676" transform="translate(738.089 3772.239)" fill="#040404"/>
        <path id="Path_27" data-name="Path 27" d="M449.568,349.154H449a1.338,1.338,0,0,0,0,2.676h.563a1.338,1.338,0,0,0,0-2.676" transform="translate(700.392 3772.239)" fill="#040404"/>
        <path id="Path_28" data-name="Path 28" d="M493.458,349.154h-.563a1.338,1.338,0,0,0,0,2.676h.563a1.338,1.338,0,0,0,0-2.676" transform="translate(662.694 3772.239)" fill="#040404"/>
        <path id="Path_29" data-name="Path 29" d="M361.79,349.154h-.563a1.338,1.338,0,0,0,0,2.676h.563a1.338,1.338,0,0,0,0-2.676" transform="translate(775.786 3772.239)" fill="#040404"/>
        <path id="Path_30" data-name="Path 30" d="M274.01,349.154h-.563a1.338,1.338,0,1,0,0,2.676h.563a1.338,1.338,0,0,0,0-2.676" transform="translate(851.182 3772.239)" fill="#040404"/>
        <path id="Path_31" data-name="Path 31" d="M317.9,349.154h-.563a1.338,1.338,0,0,0,0,2.676h.563a1.338,1.338,0,0,0,0-2.676" transform="translate(813.484 3772.239)" fill="#040404"/>
        <path id="Path_32" data-name="Path 32" d="M73.623,201.161a.985.985,0,0,0-1.381-.185,46.982,46.982,0,0,1-9.475,5.089,67.919,67.919,0,0,1-25.855,5.024,67.869,67.869,0,0,1-25.993-5.082,45.614,45.614,0,0,1-9.335-5.03.985.985,0,1,0-1.2,1.564,47.145,47.145,0,0,0,9.774,5.285,67.056,67.056,0,0,0,11.468,3.6,72.266,72.266,0,0,0,30.569,0,67.056,67.056,0,0,0,11.468-3.6,47.218,47.218,0,0,0,9.773-5.284.985.985,0,0,0,.185-1.381" transform="translate(1084.901 3899.685)" fill="#040404"/>
        <path id="Path_33" data-name="Path 33" d="M82.8,23.741a.985.985,0,0,0,1.432,0L94.481,12.893a.985.985,0,0,0-1.432-1.353L84.5,20.587V.985a.985.985,0,0,0-1.97,0v19.6l-8.55-9.048a.985.985,0,0,0-1.432,1.353Z" transform="translate(1022.821 4072.133)" fill="#040404"/>
        <path id="Path_34" data-name="Path 34" d="M292.707,12.818a.977.977,0,0,0,.716-.309l8.55-9.048v19.6a.985.985,0,1,0,1.97,0V3.462l8.55,9.048a.985.985,0,0,0,1.432-1.353L303.675.309a.985.985,0,0,0-1.432,0L291.991,11.156a.985.985,0,0,0,.716,1.662" transform="translate(834.336 4072.133)" fill="#040404"/>
      </g>
    </g>
  </g>
</svg>
