<svg xmlns="http://www.w3.org/2000/svg" width="114" height="114" viewBox="0 0 114 114">
  <g id="Group_11557" data-name="Group 11557" transform="translate(-1340 -5323)">
    <circle id="Ellipse_8" data-name="Ellipse 8" cx="57" cy="57" r="57" transform="translate(1340 5323)" fill="#f1f1f1"/>
    <g id="Group_11541" data-name="Group 11541" transform="translate(-62.65 1282.237)">
      <path id="Path_35" data-name="Path 35" d="M155.293,408.83c-.457,0-1.373-.867-2.043-1.5-1.2-1.137-2.563-2.425-4.14-2.425a2.854,2.854,0,0,0-.695.086l-.031.009a11.014,11.014,0,0,0-1.275.49,4.7,4.7,0,0,1-.954.349l-.028,0-.04,0a4.735,4.735,0,0,1-.953-.349,11.024,11.024,0,0,0-1.281-.491l-.022-.006a2.874,2.874,0,0,0-.7-.087c-1.578,0-2.94,1.289-4.142,2.427-.669.633-1.585,1.5-2.045,1.5a.766.766,0,0,0-.652,1.169,12.415,12.415,0,0,0,2.482,2.729,12.167,12.167,0,0,0,3.049,1.865,10.918,10.918,0,0,0,4.247.854l.044,0,.053,0a10.92,10.92,0,0,0,4.246-.854,12.167,12.167,0,0,0,3.049-1.865A12.435,12.435,0,0,0,155.947,410a.766.766,0,0,0-.654-1.169m-15.536,2.4c.1.006.2.009.306.009a11.74,11.74,0,0,0,2.417-.346,9.719,9.719,0,0,1,1.87-.286,3.206,3.206,0,0,1,1.349.345.768.768,0,0,0,.373.1l.046,0a.775.775,0,0,0,.421-.093,3.226,3.226,0,0,1,1.352-.347,9.733,9.733,0,0,1,1.871.286,11.726,11.726,0,0,0,2.416.345c.1,0,.206,0,.306-.009.137-.008.277-.022.416-.04-.136.124-.275.244-.414.36a9.9,9.9,0,0,1-6.318,2.366.317.317,0,0,0-.043,0l-.054,0h0a9.706,9.706,0,0,1-6.3-2.35c-.146-.12-.291-.246-.434-.376.139.018.279.031.416.04m12.424-1.523a10.642,10.642,0,0,1-2.1-.313,10.714,10.714,0,0,0-2.187-.319,4.557,4.557,0,0,0-1.771.383,4.564,4.564,0,0,0-1.771-.383,10.736,10.736,0,0,0-2.192.32,10.633,10.633,0,0,1-2.1.311c-.073,0-.144,0-.212-.006a4.929,4.929,0,0,1-1.01-.174c.393-.313.789-.688,1.207-1.084.993-.94,2.118-2,3.1-2a1.279,1.279,0,0,1,.3.034,9.9,9.9,0,0,1,1.084.422,4.377,4.377,0,0,0,1.546.475.3.3,0,0,0,.044,0l.052,0h.017a4.4,4.4,0,0,0,1.533-.475,9.918,9.918,0,0,1,1.078-.42,1.282,1.282,0,0,1,.3-.035c.984,0,2.109,1.065,3.1,2,.417.395.814.77,1.206,1.084a4.94,4.94,0,0,1-1.011.174c-.068,0-.139.006-.213.006" transform="translate(1313.48 3713.924)"/>
      <path id="Path_36" data-name="Path 36" d="M58.623,45.059c-.048-.012-.1-.023-.143-.033a88.8,88.8,0,0,0,1.278-11.662,44.347,44.347,0,0,0-2.255-14.6A28.968,28.968,0,0,0,51.287,8.306a25.616,25.616,0,0,0-9.255-6.25A30.412,30.412,0,0,0,30.77,0,30.413,30.413,0,0,0,19.508,2.056a25.613,25.613,0,0,0-9.255,6.25A28.956,28.956,0,0,0,4.038,18.766a44.336,44.336,0,0,0-2.255,14.6A88.675,88.675,0,0,0,3.053,44.982a3.919,3.919,0,0,0-.389.08C.966,45.52-.006,47.315,0,49.987A17.054,17.054,0,0,0,2.419,58.2a14.521,14.521,0,0,0,2.955,3.608,10.552,10.552,0,0,0,3.609,2.087c.33.874.676,1.691,1.055,2.5A30.992,30.992,0,0,0,14.5,73.313a21.417,21.417,0,0,0,16.026,7.42.975.975,0,0,1,.24,0A21.418,21.418,0,0,0,46.8,73.313a30.987,30.987,0,0,0,4.465-6.921c.379-.8.724-1.621,1.054-2.5a10.547,10.547,0,0,0,3.609-2.087A14.52,14.52,0,0,0,58.881,58.2,17.059,17.059,0,0,0,61.3,49.987c.005-2.671-.966-4.466-2.677-4.928M53.982,58.466a1.023,1.023,0,1,0-1.984-.5c-.429,1.709-.881,3.22-1.377,4.608a.979.979,0,0,0-.1.279,28.96,28.96,0,0,1-5.283,9.135,19.433,19.433,0,0,1-14.465,6.7.994.994,0,0,1-.24,0,19.435,19.435,0,0,1-14.465-6.7,28.973,28.973,0,0,1-5.28-9.124.975.975,0,0,0-.1-.279c-.5-1.4-.954-2.908-1.382-4.618a1.023,1.023,0,1,0-1.984.5c.25,1,.5,1.911.769,2.786-3.727-2.2-6.034-7.521-6.042-11.27,0-1.645.426-2.746,1.146-2.944a1.23,1.23,0,0,1,1.006.111,3.4,3.4,0,0,1,1.169,1.9,1.023,1.023,0,0,0,1.994-.456,5.4,5.4,0,0,0-2.093-3.183l-.075-.044a92.392,92.392,0,0,1-1.363-12c0-19.318,10.324-31.318,26.942-31.318s26.942,12,26.942,31.318a92.311,92.311,0,0,1-1.34,11.863,3.244,3.244,0,0,0-.338.179,5.4,5.4,0,0,0-2.093,3.183,1.022,1.022,0,0,0,.77,1.224,1.033,1.033,0,0,0,.228.026,1.016,1.016,0,0,0,1-.8A3.414,3.414,0,0,1,57.1,47.152a1.231,1.231,0,0,1,1.008-.114c.722.2,1.151,1.3,1.148,2.945-.008,3.749-2.315,9.074-6.042,11.27.267-.877.519-1.79.769-2.786" transform="translate(1429 4057.396)"/>
      <path id="Path_37" data-name="Path 37" d="M210.662,361.107a1.136,1.136,0,0,0,.726.294h0a.832.832,0,0,0,.761-.49,1.606,1.606,0,0,0-.454-1.809,1.135,1.135,0,0,0-.726-.294.831.831,0,0,0-.761.49,1.6,1.6,0,0,0,.453,1.809" transform="translate(1250.786 3753.026)"/>
      <path id="Path_38" data-name="Path 38" d="M180.874,358.808a1.135,1.135,0,0,0-.726.294,1.605,1.605,0,0,0-.454,1.809.831.831,0,0,0,.761.49,1.136,1.136,0,0,0,.726-.295,1.606,1.606,0,0,0,.454-1.809.832.832,0,0,0-.761-.49" transform="translate(1276.67 3753.026)"/>
      <path id="Path_39" data-name="Path 39" d="M243.178,236.138c-.187-.159-.861-.723-1.656-1.328a8.953,8.953,0,0,0-2.8-1.695l-.027-.007c-1.379-.332-3.524-.1-6.336.684-2.065.576-3.716,1.23-3.732,1.236a1.023,1.023,0,1,0,.751,1.9c1.359-.537,5.422-1.93,7.874-1.93a4.219,4.219,0,0,1,.946.092,18.931,18.931,0,0,1,3.661,2.608,1.023,1.023,0,1,0,1.319-1.563" transform="translate(1235.609 3859.779)"/>
      <path id="Path_40" data-name="Path 40" d="M79.759,235c2.45,0,6.516,1.393,7.876,1.93a1.023,1.023,0,0,0,.752-1.9c-.068-.027-1.69-.667-3.732-1.236-2.813-.784-4.959-1.015-6.335-.684l-.027.007a8.954,8.954,0,0,0-2.8,1.695c-.8.6-1.469,1.169-1.663,1.333a1.023,1.023,0,0,0,1.326,1.558,19,19,0,0,1,3.657-2.607,4.21,4.21,0,0,1,.947-.093" transform="translate(1366.677 3859.779)"/>
      <path id="Path_41" data-name="Path 41" d="M104.645,297.447a1.023,1.023,0,0,0-1.581-1.035,10.453,10.453,0,0,1-5.205,1.635l-.158,0c-2.557-.057-3.792-1-3.975-1.24a1.029,1.029,0,0,0-.918-.571,1.023,1.023,0,0,0-.941,1.422,3.713,3.713,0,0,0,1.79,1.554,9.486,9.486,0,0,0,4,.88l.2,0a12.556,12.556,0,0,0,6.36-1.991,1.014,1.014,0,0,0,.429-.655" transform="translate(1351.14 3806.106)"/>
      <path id="Path_42" data-name="Path 42" d="M241.372,297.908a1.023,1.023,0,1,0-1.577-1.3c-.341.413-1.423,1.38-4.1,1.439a9.2,9.2,0,0,1-5.088-1.609,1.023,1.023,0,0,0-1.223,1.64,11.217,11.217,0,0,0,6.155,2.016l.2,0c3.4-.076,4.99-1.4,5.636-2.182" transform="translate(1234.768 3806.106)"/>
      <path id="Path_43" data-name="Path 43" d="M54.638,81.7a44.957,44.957,0,0,0,8.9-3.133,23.037,23.037,0,0,0,8.345-7.244,1.023,1.023,0,0,0-.829-1.62,1.026,1.026,0,0,0-.831.425C65.573,76.6,59.74,78.19,54.1,79.731c-3.959,1.081-8.053,2.2-11.626,4.963a20.477,20.477,0,0,0-4.955,5.616,35.482,35.482,0,0,0-3.8,9.167,1.023,1.023,0,1,0,1.971.546C39.632,85.8,46.921,83.812,54.638,81.7" transform="translate(1400.429 3998.265)"/>
      <path id="Path_44" data-name="Path 44" d="M241.28,165.463a1.023,1.023,0,0,0,1-1.256,20.823,20.823,0,0,0-2.5-6.045,23.132,23.132,0,0,0-4.527-5.393A23.969,23.969,0,0,0,220.71,146.9a1.023,1.023,0,0,0-.123,2.042,21.225,21.225,0,0,1,19.7,15.731,1.017,1.017,0,0,0,.995.79" transform="translate(1242.695 3932.785)"/>
      <path id="Path_45" data-name="Path 45" d="M286.019,357.191a1.817,1.817,0,1,0-1.817,1.818,1.82,1.82,0,0,0,1.817-1.818m-1.817-.573a.573.573,0,1,1-.573.573.574.574,0,0,1,.573-.573" transform="translate(1189.458 3755.939)"/>
      <path id="Path_46" data-name="Path 46" d="M292.08,393.424a1.817,1.817,0,1,0,1.817,1.817,1.819,1.819,0,0,0-1.817-1.817m0,2.391a.573.573,0,1,1,.573-.573.574.574,0,0,1-.573.573" transform="translate(1182.776 3723.661)"/>
      <path id="Path_47" data-name="Path 47" d="M106.723,371.746a1.817,1.817,0,1,0,1.817,1.818,1.82,1.82,0,0,0-1.817-1.818m0,2.391a.573.573,0,1,1,.573-.573.574.574,0,0,1-.573.573" transform="translate(1340.011 3742.051)"/>
    </g>
  </g>
</svg>
