<svg xmlns="http://www.w3.org/2000/svg" width="114" height="114" viewBox="0 0 114 114">
  <g id="Group_11555" data-name="Group 11555" transform="translate(-627 -5323)">
    <circle id="Ellipse_6" data-name="Ellipse 6" cx="57" cy="57" r="57" transform="translate(627 5323)" fill="#f1f1f1"/>
    <g id="Group_11539" data-name="Group 11539" transform="translate(-109 1283)">
      <path id="Path_13" data-name="Path 13" d="M64.639,403.8a.906.906,0,1,0-.487,1.745,28.667,28.667,0,0,1,7.787,3.214c1.161.767,2.544,1.966,2.544,3.328s-1.371,2.55-2.522,3.313a28.422,28.422,0,0,1-7.725,3.205c-6.956,1.952-16.221,3.028-26.089,3.028s-19.133-1.075-26.089-3.028a28.423,28.423,0,0,1-7.725-3.2c-1.15-.763-2.521-1.958-2.521-3.314,0-1.482,1.618-2.776,2.976-3.6a33.437,33.437,0,0,1,8.967-3.363.906.906,0,1,0-.435-1.759,34.7,34.7,0,0,0-9.473,3.574C1.294,408.493,0,410.225,0,412.091c0,3.281,4,6.139,11.569,8.263,7.111,2,16.55,3.1,26.579,3.1s19.468-1.1,26.579-3.1c7.568-2.124,11.569-4.982,11.569-8.263s-4.031-6.161-11.656-8.287" transform="translate(755 3709.251)"/>
      <path id="Path_14" data-name="Path 14" d="M235.694,225.533a.906.906,0,0,0,.846-1.6,6.13,6.13,0,0,1-3.305-5.607c0-2.041.9-4.353,2.665-6.873a.906.906,0,1,0-1.483-1.041c-1.987,2.83-2.994,5.492-2.994,7.914a8.283,8.283,0,0,0,1.177,4.327,7.983,7.983,0,0,0,3.095,2.883" transform="translate(553.179 3877.84)"/>
      <path id="Path_15" data-name="Path 15" d="M288.031,326.832c.186.01.375.016.56.016a.906.906,0,0,0,0-1.812c-.151,0-.3,0-.457-.013h-.052a.906.906,0,0,0-.051,1.81" transform="translate(504.556 3777.552)"/>
      <path id="Path_16" data-name="Path 16" d="M201.343,130.225a14.213,14.213,0,0,0,18.142,0,11.239,11.239,0,0,0,2.789-3.79,11.814,11.814,0,0,0,1.021-4.887,19.737,19.737,0,0,0-1.991-7.931,46.388,46.388,0,0,0-4.287-7.376,69.372,69.372,0,0,0-6.205-7.667.906.906,0,0,0-1.322.018,71.061,71.061,0,0,0-5.945,7.724,47.788,47.788,0,0,0-4.106,7.379,20.232,20.232,0,0,0-1.906,7.854,11.812,11.812,0,0,0,1.021,4.887,11.24,11.24,0,0,0,2.789,3.79m8.645-29.443.19-.225.2.219c2.606,2.918,11.109,13.041,11.109,20.772,0,5.873-4.655,10.136-11.069,10.136s-11.069-4.263-11.069-10.136c0-7.607,8.146-17.818,10.643-20.766" transform="translate(582.733 3975.277)"/>
      <path id="Path_17" data-name="Path 17" d="M225.727,439.182a.906.906,0,0,0-.1-1.806.927.927,0,0,0-.106.006,17.61,17.61,0,0,0-3.766.787,4.581,4.581,0,0,0-1.255.643,1.606,1.606,0,0,0-.71,1.286,1.882,1.882,0,0,0,1.2,1.6,9,9,0,0,0,2.182.733,35.955,35.955,0,0,0,13.306,0,9,9,0,0,0,2.182-.733,1.882,1.882,0,0,0,1.2-1.6,1.651,1.651,0,0,0-.816-1.363,5.383,5.383,0,0,0-1.445-.666,20.9,20.9,0,0,0-4.384-.779.906.906,0,1,0-.157,1.805,17.535,17.535,0,0,1,4.176.762l.686.241-.685.242a12.106,12.106,0,0,1-1.812.454,35.544,35.544,0,0,1-11.194,0,12.125,12.125,0,0,1-1.815-.454l-.685-.242.685-.241a15.672,15.672,0,0,1,3.316-.674" transform="translate(563.326 3679.647)"/>
      <path id="Path_18" data-name="Path 18" d="M108.023,414.46a19.244,19.244,0,0,0,5.338,2.233,65.755,65.755,0,0,0,17.014,1.983,65.754,65.754,0,0,0,17.014-1.983,19.247,19.247,0,0,0,5.338-2.233c1.505-1,2.269-2.125,2.269-3.346a3.387,3.387,0,0,0-1.052-2.348,8.985,8.985,0,0,0-2.523-1.742,32.069,32.069,0,0,0-8.349-2.452.929.929,0,0,0-.157-.014.906.906,0,0,0-.155,1.8c7.162,1.255,10.425,3.346,10.425,4.758,0,1.258-2.467,2.763-6.285,3.834a63.924,63.924,0,0,1-16.524,1.916,63.924,63.924,0,0,1-16.524-1.916c-3.818-1.071-6.285-2.576-6.285-3.834,0-1.424,3.3-3.528,10.553-4.78a.906.906,0,1,0-.308-1.786A32.447,32.447,0,0,0,109.37,407a9.072,9.072,0,0,0-2.551,1.749,3.394,3.394,0,0,0-1.064,2.361c0,1.221.763,2.347,2.269,3.346" transform="translate(662.773 3708.209)"/>
      <path id="Path_19" data-name="Path 19" d="M272.706,8.917a.906.906,0,0,0,1.374,0c.125-.145.77-.908,1.426-1.848,1.373-1.97,1.532-2.9,1.532-3.427a3.644,3.644,0,1,0-7.288,0c0,.528.159,1.457,1.532,3.427.656.941,1.3,1.7,1.424,1.846m.688-7.105a1.834,1.834,0,0,1,1.832,1.832c0,.11-.058.739-1.2,2.375-.137.2-.282.4-.432.6l-.2.273-.2-.273c-.15-.2-.3-.4-.432-.6-1.138-1.636-1.2-2.265-1.2-2.375a1.834,1.834,0,0,1,1.832-1.832" transform="translate(519.754 4061)"/>
    </g>
  </g>
</svg>
